<?xml version="1.0" encoding="UTF-8" standalone="no"?>
<svg
   height="27.962963"
   viewBox="0 -960 1118.5183 1118.5185"
   width="27.962959"
   fill="#e8eaed"
   version="1.1"
   id="svg4"
   sodipodi:docname="star-rate-full.svg"
   inkscape:version="1.2.2 (732a01da63, 2022-12-09)"
   xmlns:inkscape="http://www.inkscape.org/namespaces/inkscape"
   xmlns:sodipodi="http://sodipodi.sourceforge.net/DTD/sodipodi-0.dtd"
   xmlns="http://www.w3.org/2000/svg"
   xmlns:svg="http://www.w3.org/2000/svg">
  <defs
     id="defs8">
    <filter
       inkscape:collect="always"
       style="color-interpolation-filters:sRGB"
       id="filter1453"
       x="-0.059259264"
       y="-0.059259257"
       width="1.1185185"
       height="1.1185185">
      <feGaussianBlur
         inkscape:collect="always"
         stdDeviation="24.691358"
         id="feGaussianBlur1455" />
    </filter>
  </defs>
  <sodipodi:namedview
     id="namedview6"
     pagecolor="#ffffff"
     bordercolor="#000000"
     borderopacity="0.25"
     inkscape:showpageshadow="2"
     inkscape:pageopacity="0.0"
     inkscape:pagecheckerboard="0"
     inkscape:deskcolor="#d1d1d1"
     showgrid="false"
     inkscape:zoom="11.479167"
     inkscape:cx="29.270417"
     inkscape:cy="19.774955"
     inkscape:window-width="1366"
     inkscape:window-height="705"
     inkscape:window-x="-8"
     inkscape:window-y="-8"
     inkscape:window-maximized="1"
     inkscape:current-layer="svg4" />
  <path
     style="fill:#feca06;fill-opacity:1;stroke-width:1.48569;stroke-opacity:0.972549"
     d="m 459.41704,-198.88908 c 0.55825,-2.713 9.23123,-33.12909 19.2733,-67.59113 17.77124,-60.98683 18.15733,-62.73655 14.47346,-65.58984 -2.08166,-1.61235 -24.39603,-17.81151 -49.58749,-35.9982 l -45.80267,-33.06672 62.28463,-0.98658 62.28463,-0.98655 20.52376,-67.60907 c 11.28807,-37.18501 20.8097,-67.32092 21.15919,-66.96869 0.55646,0.56068 8.46655,26.04816 35.17563,113.33896 l 6.78357,22.17008 62.09087,0.5209 62.09086,0.52095 -49.45573,35.51635 c -45.55506,32.71505 -49.3703,35.90539 -48.37219,40.44918 0.596,2.713 9.2756,32.90196 19.28804,67.08645 10.01248,34.18449 17.96559,62.46619 17.67366,62.84825 -0.29215,0.38052 -21.07112,-15.20547 -46.17595,-34.63889 -50.72133,-39.26305 -57.15953,-43.99443 -59.86494,-43.99443 -1.3914,0 -80.71124,60.34603 -102.0948,77.6731 -2.26894,1.83872 -2.58138,1.35673 -1.74783,-2.69398 z"
     id="path308" />
  <path
     d="m 465.32822,-210.92944 96,-74 96,74 -36,-122 90,-64 h -112 l -38,-124 -38,124 h -112 l 90,64 z m -151,214.0000014 93,-304.0000014 -246,-176 h 304 l 96,-320 96,320 h 304 l -246,176 93,304.0000014 -247,-188.0000014 z m 247,-369.0000014 z"
     id="path2"
     style="fill:#feca06;fill-opacity:1" />
  <path
     d="m 439.25921,-168.24069 120,-92.5 120,92.5 -45,-152.5 112.5,-80 h -140 l -47.5,-155 -47.5,155 h -140 l 112.5,80 z m -188.7499,267.500004 116.2499,-380.000004 -307.499949,-220 H 439.25921 l 120,-400.00005 120,400.00005 h 379.99999 l -307.49999,220 116.25,380.000004 -308.75,-235.000004 z m 308.7499,-461.250004 z"
     id="path2-1"
     style="opacity:0.480084;mix-blend-mode:normal;fill:#fffc25;fill-opacity:0.614865;stroke-width:1.25;filter:url(#filter1453)" />
</svg>
