<?xml version="1.0" encoding="UTF-8" standalone="no"?>
<svg
   height="27.962965"
   viewBox="0 -960 1118.5182 1118.5186"
   width="27.962957"
   fill="#e8eaed"
   version="1.1"
   id="svg4"
   sodipodi:docname="star-rate-empty.svg"
   inkscape:version="1.2.2 (732a01da63, 2022-12-09)"
   xml:space="preserve"
   xmlns:inkscape="http://www.inkscape.org/namespaces/inkscape"
   xmlns:sodipodi="http://sodipodi.sourceforge.net/DTD/sodipodi-0.dtd"
   xmlns="http://www.w3.org/2000/svg"
   xmlns:svg="http://www.w3.org/2000/svg"><defs
     id="defs8"><filter
       inkscape:collect="always"
       style="color-interpolation-filters:sRGB"
       id="filter1453"
       x="-0.05925927"
       y="-0.059259258"
       width="1.1185185"
       height="1.1185185"><feGaussianBlur
         inkscape:collect="always"
         stdDeviation="24.691358"
         id="feGaussianBlur1455" /></filter></defs><sodipodi:namedview
     id="namedview6"
     pagecolor="#ffffff"
     bordercolor="#000000"
     borderopacity="0.25"
     inkscape:showpageshadow="2"
     inkscape:pageopacity="0.0"
     inkscape:pagecheckerboard="0"
     inkscape:deskcolor="#d1d1d1"
     showgrid="false"
     inkscape:zoom="4.0584983"
     inkscape:cx="15.522983"
     inkscape:cy="46.076156"
     inkscape:window-width="1366"
     inkscape:window-height="705"
     inkscape:window-x="-8"
     inkscape:window-y="-8"
     inkscape:window-maximized="1"
     inkscape:current-layer="svg4" /><path
     d="m 463.287,-232.93003 96,-74 96,74 -36,-122 90,-64 h -112 l -38,-124 -38,124 h -112 l 90,64 z m -151,214.000009 93,-304.000009 -246,-176 h 304 l 96,-320 96,320 h 304 l -246,176 93,304.000009 -247,-188.000009 z m 247,-369.000009 z"
     id="path2"
     style="fill:#feca06;fill-opacity:1" /><path
     d="m 439.25917,-168.24069 120,-92.5 120,92.5 -45,-152.5 112.5,-80 h -140 l -47.5,-155 -47.5,155 h -140 l 112.5,80 z m -188.7499,267.500001 116.2499,-380.000001 -307.499911,-220 H 439.25917 l 120,-400.00005 120,400.00005 h 379.99993 l -307.49993,220 116.25,380.000001 -308.75,-235.000001 z m 308.7499,-461.250001 z"
     id="path2-1"
     style="opacity:0.480084;mix-blend-mode:normal;fill:#fffc25;fill-opacity:0.614865;stroke-width:1.25;filter:url(#filter1453)" /></svg>
