<?xml version="1.0" encoding="UTF-8" standalone="no"?>
<svg
   height="27.962965"
   viewBox="0 -960 1118.5183 1118.5186"
   width="27.962959"
   fill="#e8eaed"
   version="1.1"
   id="svg4"
   sodipodi:docname="star-rate-half.svg"
   inkscape:version="1.2.2 (732a01da63, 2022-12-09)"
   xml:space="preserve"
   xmlns:inkscape="http://www.inkscape.org/namespaces/inkscape"
   xmlns:sodipodi="http://sodipodi.sourceforge.net/DTD/sodipodi-0.dtd"
   xmlns="http://www.w3.org/2000/svg"
   xmlns:svg="http://www.w3.org/2000/svg"><defs
     id="defs8"><filter
       inkscape:collect="always"
       style="color-interpolation-filters:sRGB"
       id="filter1453-0"
       x="-0.059259266"
       y="-0.059259258"
       width="1.1185185"
       height="1.1185185"><feGaussianBlur
         inkscape:collect="always"
         stdDeviation="24.691358"
         id="feGaussianBlur1455-2" /></filter></defs><sodipodi:namedview
     id="namedview6"
     pagecolor="#ffffff"
     bordercolor="#000000"
     borderopacity="0.25"
     inkscape:showpageshadow="2"
     inkscape:pageopacity="0.0"
     inkscape:pagecheckerboard="0"
     inkscape:deskcolor="#d1d1d1"
     showgrid="false"
     inkscape:zoom="8.1169966"
     inkscape:cx="44.967371"
     inkscape:cy="18.972535"
     inkscape:window-width="1366"
     inkscape:window-height="705"
     inkscape:window-x="-8"
     inkscape:window-y="-8"
     inkscape:window-maximized="1"
     inkscape:current-layer="svg4" /><g
     id="g2059"
     transform="translate(-1350.3139,-96.155539)"><g
       style="fill:#feca06;fill-opacity:1"
       id="g1748"
       transform="translate(1432.0372,190.48688)"><path
         d="m 606,-286 -33,-144 111,-96 -146,-13 -58,-136 v 312 z m -373,166 65,-281 -218,-189 288,-25 112,-265 112,265 288,25 -218,189 65,281 -247,-149 z"
         id="path1739"
         style="fill:#feca06;fill-opacity:1" /></g><path
       d="m 1789.5731,-72.085145 120,-92.500005 120,92.500005 -45,-152.500005 112.5,-80 h -140 l -47.5,-155 -47.5,155 h -140 l 112.5,80 z m -188.7499,267.499995 116.2499,-380 -307.4999,-220 h 379.9999 l 120,-400.00005 120,400.00005 h 380 l -307.5,220 116.25,380 -308.75,-234.999995 z m 308.7499,-461.25 z"
       id="path2-1-0"
       style="opacity:0.480084;mix-blend-mode:normal;fill:#fffc25;fill-opacity:0.614865;stroke-width:1.25;filter:url(#filter1453-0)" /></g></svg>
