<?xml version="1.0" encoding="UTF-8" standalone="no"?>
<!-- Created with Inkscape (http://www.inkscape.org/) -->

<svg
   width="24.202833mm"
   height="24.337421mm"
   viewBox="0 0 24.202834 24.337419"
   version="1.1"
   id="svg5"
   xml:space="preserve"
   inkscape:version="1.2.2 (732a01da63, 2022-12-09)"
   sodipodi:docname="doc.svg"
   xmlns:inkscape="http://www.inkscape.org/namespaces/inkscape"
   xmlns:sodipodi="http://sodipodi.sourceforge.net/DTD/sodipodi-0.dtd"
   xmlns="http://www.w3.org/2000/svg"
   xmlns:svg="http://www.w3.org/2000/svg"><sodipodi:namedview
     id="namedview7"
     pagecolor="#ffffff"
     bordercolor="#000000"
     borderopacity="0.25"
     inkscape:showpageshadow="2"
     inkscape:pageopacity="0.0"
     inkscape:pagecheckerboard="0"
     inkscape:deskcolor="#d1d1d1"
     inkscape:document-units="mm"
     showgrid="false"
     inkscape:zoom="0.49085999"
     inkscape:cx="804.71012"
     inkscape:cy="301.51164"
     inkscape:window-width="1366"
     inkscape:window-height="705"
     inkscape:window-x="-8"
     inkscape:window-y="-8"
     inkscape:window-maximized="1"
     inkscape:current-layer="layer1" /><defs
     id="defs2" /><g
     inkscape:label="Слой 1"
     inkscape:groupmode="layer"
     id="layer1"
     transform="translate(375.28847,-107.6067)"><path
       d="m -370.67026,131.79733 c -4.3394,-0.44806 -5.02616,-0.93121 -4.43647,-3.12114 0.44147,-1.63951 1.85695,-2.74674 4.45833,-3.48745 2.00556,-0.57105 3.4964,-1.46645 3.4964,-2.09991 0,-0.1413 -0.27769,-0.59348 -0.61708,-1.00482 -0.65722,-0.79655 -1.31999,-1.91636 -1.77371,-2.99686 -0.15276,-0.36381 -0.44948,-0.95912 -0.65937,-1.32292 -0.48253,-0.83639 -0.50108,-2.89408 -0.0322,-3.57914 0.19644,-0.28704 0.6092,-1.35533 0.91725,-2.37398 0.59363,-1.96297 1.37818,-3.02347 2.76895,-3.74288 1.05561,-0.54604 4.90285,-0.62827 6.3283,-0.13526 1.34542,0.46532 2.47546,1.84693 3.0018,3.67005 0.24309,0.84205 0.54848,1.7096 0.67865,1.92789 0.87642,1.46981 0.92401,3.22453 0.12793,4.71816 -0.20688,0.38818 -0.63673,1.23889 -0.95522,1.89045 -0.31849,0.65157 -0.86453,1.52391 -1.21341,1.93853 -0.34889,0.41462 -0.63434,0.86948 -0.63434,1.01078 0,0.58039 1.42797,1.5142 2.97802,1.94744 3.2583,0.9107 4.75647,2.12042 5.09301,4.11239 0.24706,1.46231 -0.25574,1.9737 -2.33469,2.37455 -1.96345,0.37858 -14.27869,0.57494 -17.1921,0.27412 z m 12.71582,-0.54029 c 2.07547,-0.14172 4.30789,-0.39222 4.96094,-0.55665 1.00721,-0.25362 1.18734,-0.39853 1.18734,-0.95519 0,-1.03866 -0.77618,-2.40254 -1.68181,-2.95518 -0.45745,-0.27915 -1.69006,-0.76087 -2.73914,-1.07048 -2.17417,-0.64167 -3.51654,-1.61246 -3.51654,-2.54312 0,-0.34441 0.47625,-1.30606 1.05833,-2.13701 0.58208,-0.83095 1.05833,-1.64168 1.05833,-1.80161 0,-0.15993 0.23813,-0.73507 0.52917,-1.27809 0.60634,-1.13131 0.70502,-3.15974 0.17509,-3.59953 -0.19474,-0.16162 -0.49928,-0.94271 -0.67675,-1.73577 -0.36219,-1.61841 -1.12103,-2.8779 -2.22818,-3.69823 -0.57339,-0.42485 -1.23422,-0.57454 -2.86283,-0.6485 -3.77671,-0.17151 -5.26884,0.87265 -6.14876,4.30278 -0.22053,0.85971 -0.5493,1.65477 -0.73059,1.76682 -0.46287,0.28607 -0.38742,2.79702 0.10103,3.36253 0.2144,0.24821 0.52422,0.8517 0.68851,1.34109 0.16429,0.48938 0.71693,1.47192 1.2281,2.18342 0.51116,0.7115 0.92938,1.58043 0.92938,1.93096 0,0.9427 -1.33044,1.90906 -3.51654,2.55426 -1.04908,0.30961 -2.30803,0.80761 -2.79767,1.10665 -0.92466,0.56473 -1.62329,1.83078 -1.62329,2.94169 0,0.55335 0.18496,0.68794 1.3194,0.96009 2.79963,0.67162 9.70091,0.91047 15.28648,0.52907 z"
       style="fill:#000000;stroke-width:0.264583"
       id="path949" /></g></svg>
