<?xml version="1.0" encoding="UTF-8" standalone="no"?>
<!-- Created with Inkscape (http://www.inkscape.org/) -->

<svg
   width="25.007086mm"
   height="24.303453mm"
   viewBox="0 0 25.007086 24.303452"
   version="1.1"
   id="svg5"
   xml:space="preserve"
   inkscape:version="1.2.2 (732a01da63, 2022-12-09)"
   sodipodi:docname="family.svg"
   xmlns:inkscape="http://www.inkscape.org/namespaces/inkscape"
   xmlns:sodipodi="http://sodipodi.sourceforge.net/DTD/sodipodi-0.dtd"
   xmlns="http://www.w3.org/2000/svg"
   xmlns:svg="http://www.w3.org/2000/svg"><sodipodi:namedview
     id="namedview7"
     pagecolor="#ffffff"
     bordercolor="#000000"
     borderopacity="0.25"
     inkscape:showpageshadow="2"
     inkscape:pageopacity="0.0"
     inkscape:pagecheckerboard="0"
     inkscape:deskcolor="#d1d1d1"
     inkscape:document-units="mm"
     showgrid="false"
     inkscape:zoom="0.49085999"
     inkscape:cx="855.64114"
     inkscape:cy="114.08549"
     inkscape:window-width="1366"
     inkscape:window-height="705"
     inkscape:window-x="-8"
     inkscape:window-y="-8"
     inkscape:window-maximized="1"
     inkscape:current-layer="layer1" /><defs
     id="defs2" /><g
     inkscape:label="Слой 1"
     inkscape:groupmode="layer"
     id="layer1"
     transform="translate(388.93955,-112.67983)"><path
       d="m -383.36155,136.65257 c -0.15047,-0.1819 -0.48593,-1.97653 -0.74547,-3.98806 l -0.47189,-3.65735 -0.64042,1.2761 c -0.90688,1.80703 -1.32505,2.20213 -2.33075,2.20213 -1.05377,0 -1.54724,-0.72257 -1.34492,-1.96931 0.18803,-1.15866 2.39952,-5.72827 3.27682,-6.77088 0.82046,-0.97506 2.04884,-1.5681 3.31682,-1.60131 0.83359,-0.0218 0.84097,-0.031 0.18407,-0.23012 -1.15922,-0.3513 -1.96733,-1.0184 -2.60233,-2.14823 -0.80719,-1.43619 -0.70709,-3.93621 0.20912,-5.22291 2.21057,-3.10446 6.97643,-2.15988 7.98413,1.58243 0.62061,2.3048 -0.87598,5.16924 -2.99006,5.72292 -0.83666,0.21912 -0.82318,0.22896 0.53715,0.39228 0.76745,0.0921 1.51159,0.23935 1.65366,0.32714 0.34696,0.21444 0.33073,1.18674 -0.0198,1.18674 -0.40791,0 -1.06761,1.74329 -0.87049,2.30031 0.60302,1.70401 2.51758,2.23372 3.51062,0.9713 0.70564,-0.89709 0.71468,-2.31156 0.0192,-3.00703 -0.29105,-0.29104 -0.52917,-0.69612 -0.52917,-0.90016 0,-0.42937 1.29635,-0.93971 2.48688,-0.97901 l 0.8204,-0.0271 -0.88124,-0.20845 c -0.97789,-0.23131 -2.27429,-1.34083 -2.84654,-2.43623 -0.20529,-0.39295 -0.37129,-1.34544 -0.3689,-2.11665 0.009,-2.8476 2.01517,-4.82354 4.70298,-4.63175 1.54745,0.11042 2.4984,0.66967 3.40639,2.00327 1.65969,2.43764 0.54836,6.11469 -2.12227,7.02192 l -1.02,0.3465 1.32511,0.17578 c 1.11013,0.14727 1.48529,0.35309 2.31248,1.26869 0.97908,1.08372 2.69324,4.4432 3.29145,6.45069 0.22636,0.75962 0.2336,1.24646 0.0266,1.78754 -0.25117,0.65654 -0.39992,0.73399 -1.27053,0.66146 -0.83542,-0.0696 -1.07943,-0.24384 -1.59718,-1.14048 l -0.61112,-1.05833 0.18862,1.05833 c 0.34913,1.95907 0.30596,2.10902 -0.63322,2.19958 -0.83053,0.0801 -0.85989,0.12358 -0.85989,1.27416 0,2.13055 -0.13229,2.2148 -3.47758,2.2148 -2.90425,0 -2.92854,-0.005 -2.78688,-0.59531 0.0786,-0.32742 0.22382,-1.0418 0.32272,-1.5875 0.17197,-0.94898 0.68965,-1.30572 1.04961,-0.72329 0.38391,0.62117 0.65879,-0.15379 0.65879,-1.85726 0,-1.54428 -0.0973,-1.93477 -0.63855,-2.56407 -0.57906,-0.67317 -0.80043,-0.74236 -2.37526,-0.74236 -1.53772,0 -1.81925,0.0826 -2.45732,0.72064 -0.60222,0.60221 -0.7355,0.99351 -0.81111,2.38125 -0.10905,2.00138 0.13673,2.52931 0.94306,2.02574 0.30393,-0.1898 0.61372,-0.28397 0.68843,-0.20927 0.0747,0.0747 0.21557,0.81435 0.31304,1.64363 l 0.17721,1.5078 h -2.91445 c -2.00925,0 -2.99941,-0.10272 -3.18803,-0.33073 z m 5.29231,-0.99218 c -0.0887,-0.60441 -0.25449,-0.79375 -0.69501,-0.79375 -0.9752,0 -1.21351,-0.5121 -1.21351,-2.60764 0,-1.69634 0.0926,-2.09405 0.66128,-2.83961 0.36371,-0.47684 0.90251,-0.94355 1.19734,-1.03712 0.52256,-0.16586 0.51923,-0.19016 -0.13211,-0.96423 -0.8275,-0.98342 -0.87709,-2.33739 -0.12991,-3.54635 l 0.53828,-0.87095 -1.4783,-0.1847 c -1.59523,-0.19931 -3.75627,7.9e-4 -4.71225,0.43639 -0.81705,0.37227 -2.10064,2.33205 -3.21402,4.90713 -1.00721,2.32953 -1.1674,3.4585 -0.52567,3.70476 0.61999,0.23791 1.33207,-0.57444 2.15073,-2.45362 1.16225,-2.66787 1.43874,-2.31815 2.11983,2.68128 0.31693,2.32643 0.58481,4.25963 0.5953,4.29601 0.0105,0.0364 1.12955,0.0661 2.48679,0.0661 h 2.46772 z m 8.30123,0.49147 c 0.10275,-0.16625 0.2586,-0.96992 0.34634,-1.78594 0.14792,-1.37573 0.21247,-1.48975 0.88714,-1.56738 0.40017,-0.046 0.72759,-0.13073 0.72759,-0.18819 0,-0.0575 -0.23811,-1.12572 -0.52915,-2.37392 -0.63214,-2.71104 -0.63561,-2.77813 -0.14389,-2.77813 0.21438,0 0.8892,0.96823 1.52136,2.18281 0.84717,1.62774 1.27063,2.18282 1.66524,2.18282 0.91097,0 0.64103,-1.77372 -0.7047,-4.63021 -1.53929,-3.26738 -2.40026,-4.13692 -4.33559,-4.37872 -1.38438,-0.17297 -3.35125,-0.014 -3.88141,0.31361 -0.1325,0.0819 -0.0445,0.36596 0.19562,0.63126 0.77084,0.85177 0.79124,2.37873 0.0464,3.47033 l -0.6568,0.96252 0.63396,0.28886 c 1.1253,0.51272 1.68899,1.80839 1.69009,3.88474 0.001,1.99985 -0.24765,2.50032 -1.24255,2.50032 -0.3347,0 -0.61016,0.0893 -0.61216,0.19843 -0.002,0.10914 -0.0754,0.46633 -0.16314,0.79375 -0.15635,0.58341 -0.11429,0.59532 2.10466,0.59532 1.41227,0 2.3345,-0.11374 2.45101,-0.30228 z m -9.1244,-15.37956 c 3.20759,-2.1428 1.81171,-7.34492 -1.98626,-7.40234 -2.02981,-0.0307 -3.59063,1.48937 -3.78252,3.68375 -0.28471,3.25564 3.14876,5.46888 5.76878,3.71859 z m 9.16967,0.0729 c 3.25111,-1.98223 2.01871,-7.40499 -1.69454,-7.45623 -2.84544,-0.0393 -4.71616,2.75665 -3.67264,5.48904 0.85367,2.23531 3.39794,3.16785 5.36718,1.96719 z"
       style="fill:#000000;stroke-width:0.264583"
       id="path903" /></g></svg>
