<?xml version="1.0" encoding="UTF-8" standalone="no"?>
<!-- Created with Inkscape (http://www.inkscape.org/) -->

<svg
   width="24.168676mm"
   height="21.08358mm"
   viewBox="0 0 24.168676 21.083579"
   version="1.1"
   id="svg5"
   xml:space="preserve"
   inkscape:version="1.2.2 (732a01da63, 2022-12-09)"
   sodipodi:docname="horror.svg"
   xmlns:inkscape="http://www.inkscape.org/namespaces/inkscape"
   xmlns:sodipodi="http://sodipodi.sourceforge.net/DTD/sodipodi-0.dtd"
   xmlns="http://www.w3.org/2000/svg"
   xmlns:svg="http://www.w3.org/2000/svg"><sodipodi:namedview
     id="namedview7"
     pagecolor="#ffffff"
     bordercolor="#000000"
     borderopacity="0.25"
     inkscape:showpageshadow="2"
     inkscape:pageopacity="0.0"
     inkscape:pagecheckerboard="0"
     inkscape:deskcolor="#d1d1d1"
     inkscape:document-units="mm"
     showgrid="false"
     inkscape:zoom="0.24542999"
     inkscape:cx="1654.2395"
     inkscape:cy="52.968261"
     inkscape:window-width="1366"
     inkscape:window-height="705"
     inkscape:window-x="-8"
     inkscape:window-y="-8"
     inkscape:window-maximized="1"
     inkscape:current-layer="layer1" /><defs
     id="defs2" /><g
     inkscape:label="Слой 1"
     inkscape:groupmode="layer"
     id="layer1"
     transform="translate(400.4283,-110.40444)"><path
       d="m -394.4872,130.78568 c -0.8416,-0.84161 -0.85145,-2.21265 -0.0286,-3.98078 1.2796,-2.74958 2.28959,-6.65977 2.28959,-8.86411 0,-2.69905 1.76119,-5.47162 4.33299,-6.82125 1.15978,-0.60863 1.68036,-0.71191 3.60451,-0.71508 2.60737,-0.004 4.02661,0.54178 5.67475,2.18347 2.73908,2.72837 3.07643,6.54834 1.07326,12.15295 -1.04771,2.93137 -2.00711,4.65984 -3.23838,5.83433 -1.17045,1.11647 -2.91841,1.22631 -3.70014,0.23252 l -0.4935,-0.62739 -0.78247,0.62607 c -1.19014,0.95226 -2.77971,0.87195 -3.6694,-0.18538 l -0.685,-0.81408 -0.81407,0.81408 c -1.06547,1.06547 -2.59217,1.136 -3.56353,0.16465 z m 7.9053,-0.41168 c 0.41225,-0.20608 1.05165,-0.89022 1.42091,-1.52031 0.36926,-0.63009 0.79546,-1.10425 0.94711,-1.0537 0.15166,0.0506 0.28616,0.68077 0.29889,1.40049 0.0231,1.30551 0.0254,1.30878 0.97243,1.38815 0.81934,0.0687 1.08065,-0.0659 1.90896,-0.98269 2.52695,-2.79703 4.59453,-9.54667 3.90676,-12.75366 -0.35202,-1.6414 -0.59954,-2.11393 -1.80785,-3.4514 -3.22825,-3.57328 -9.13775,-2.94395 -11.58611,1.23387 -0.50593,0.86329 -0.73894,1.77091 -0.92899,3.61853 -0.3125,3.03818 -0.78856,4.94464 -1.97558,7.91148 -0.50463,1.26129 -0.91751,2.55421 -0.91751,2.87315 0,1.82148 1.78711,2.23702 3.08144,0.7165 0.41526,-0.48783 0.96226,-1.26945 1.21557,-1.73694 0.5647,-1.04218 1.01062,-0.85453 0.81621,0.34349 -0.17035,1.04972 0.25467,1.96135 1.05564,2.26426 0.64908,0.24547 0.57528,0.25711 1.59212,-0.25122 z m -2.07244,-10.63554 c -0.85272,-0.48904 -1.17324,-1.06919 -1.18221,-2.13985 -0.0185,-2.20976 2.6431,-3.18373 4.06911,-1.48902 0.9278,1.10262 0.89754,2.18907 -0.0884,3.17504 -0.8259,0.8259 -1.85789,0.99326 -2.79848,0.45383 z m 2.24896,-1.00335 c 1.02491,-1.02491 0.36299,-2.64582 -1.08044,-2.64582 -0.92111,0 -1.5654,0.62536 -1.5654,1.51941 0,1.48564 1.60382,2.16843 2.64584,1.12641 z m 3.68381,0.54952 c -1.02452,-1.02452 -1.05422,-2.31321 -0.0759,-3.29156 1.4835,-1.48349 4.06496,-0.46242 4.06496,1.60785 0,1.21606 -1.20273,2.45711 -2.38125,2.45711 -0.56951,0 -1.08001,-0.24556 -1.60785,-0.7734 z m 2.7115,-0.45824 c 0.60246,-0.54521 0.62427,-1.61425 0.046,-2.25326 -0.90854,-1.00392 -2.73712,-0.29733 -2.73712,1.05768 0,1.41525 1.64223,2.14484 2.69115,1.19558 z m -20.41823,5.0681 c 0,-0.32759 0.48507,-0.39688 2.77813,-0.39688 2.29305,0 2.77812,0.0693 2.77812,0.39688 0,0.32758 -0.48507,0.39687 -2.77812,0.39687 -2.29306,0 -2.77813,-0.0693 -2.77813,-0.39687 z m 1.38906,-3.10886 c 0.0771,-0.2313 0.81286,-0.33073 2.4474,-0.33073 1.63454,0 2.3703,0.0994 2.4474,0.33073 0.0831,0.24938 -0.51888,0.33073 -2.4474,0.33073 -1.92852,0 -2.53052,-0.0814 -2.4474,-0.33073 z m 2.91042,-3.175 c 0.0656,-0.19674 0.57473,-0.33073 1.25677,-0.33073 0.68204,0 1.19119,0.13399 1.25677,0.33073 0.0787,0.23613 -0.28075,0.33073 -1.25677,0.33073 -0.97602,0 -1.33548,-0.0946 -1.25677,-0.33073 z"
       style="fill:#000000;stroke-width:0.264583"
       id="path654" /></g></svg>
