<?xml version="1.0" encoding="UTF-8" standalone="no"?>
<!-- Created with Inkscape (http://www.inkscape.org/) -->

<svg
   width="23.298429mm"
   height="24.883545mm"
   viewBox="0 0 23.29843 24.883542"
   version="1.1"
   id="svg5"
   xml:space="preserve"
   inkscape:version="1.2.2 (732a01da63, 2022-12-09)"
   sodipodi:docname="tv.svg"
   xmlns:inkscape="http://www.inkscape.org/namespaces/inkscape"
   xmlns:sodipodi="http://sodipodi.sourceforge.net/DTD/sodipodi-0.dtd"
   xmlns="http://www.w3.org/2000/svg"
   xmlns:svg="http://www.w3.org/2000/svg"><sodipodi:namedview
     id="namedview7"
     pagecolor="#ffffff"
     bordercolor="#000000"
     borderopacity="0.25"
     inkscape:showpageshadow="2"
     inkscape:pageopacity="0.0"
     inkscape:pagecheckerboard="0"
     inkscape:deskcolor="#d1d1d1"
     inkscape:document-units="mm"
     showgrid="false"
     inkscape:zoom="0.49085999"
     inkscape:cx="800.63564"
     inkscape:cy="275.02751"
     inkscape:window-width="1366"
     inkscape:window-height="705"
     inkscape:window-x="-8"
     inkscape:window-y="-8"
     inkscape:window-maximized="1"
     inkscape:current-layer="layer1" /><defs
     id="defs2" /><g
     inkscape:label="Слой 1"
     inkscape:groupmode="layer"
     id="layer1"
     transform="translate(374.66511,-114.89724)"><path
       d="m -370.76514,139.61627 c -0.0905,-0.0905 0.12167,-0.7293 0.47148,-1.4196 l 0.636,-1.25508 -1.43473,-0.14807 c -1.52571,-0.15747 -2.28493,-0.55115 -2.99411,-1.55255 -0.63621,-0.89835 -0.80894,-12.63497 -0.20714,-14.07526 0.72875,-1.74416 1.57663,-2.02031 6.20656,-2.02144 2.23132,-5.3e-4 4.0164,-0.0903 3.96685,-0.19942 -0.0495,-0.10914 -0.47619,-0.93919 -0.94809,-1.84454 -0.4719,-0.90536 -0.858,-1.77848 -0.858,-1.94028 0,-0.7042 0.71532,0.0544 1.61004,1.70744 l 0.96745,1.78742 0.9991,-1.80632 c 1.20825,-2.18446 1.13515,-2.09521 1.45458,-1.77579 0.17007,0.17007 -0.0579,0.84956 -0.65986,1.96674 -0.50584,0.93879 -0.92242,1.79619 -0.92571,1.90533 -0.003,0.10914 1.92875,0.19888 4.29347,0.19942 4.89741,10e-4 5.71158,0.25633 6.44909,2.02144 0.6018,1.44029 0.42907,13.17691 -0.20714,14.07525 -0.72704,1.02663 -1.49984,1.41085 -3.1361,1.55922 l -1.55741,0.14123 0.63604,1.25517 c 0.59963,1.18332 0.61784,1.5842 0.072,1.5842 -0.12927,0 -0.52465,-0.65484 -0.87861,-1.4552 l -0.64356,-1.45521 h -5.63677 -5.63675 l -0.7137,1.45521 c -0.68071,1.38791 -0.95779,1.65784 -1.32494,1.29069 z m 17.82538,-4.53603 0.77177,-0.86405 v -6.0944 c 0,-6.45549 -0.13725,-7.28563 -1.30825,-7.91233 -0.32061,-0.17158 -3.85189,-0.27244 -9.53966,-0.27244 -5.68777,0 -9.21905,0.10086 -9.53966,0.27244 -1.17,0.62617 -1.30826,1.45902 -1.30826,7.88084 0,5.79278 0.0252,6.09491 0.56571,6.78206 0.31114,0.39554 0.81716,0.82311 1.12448,0.95015 0.30732,0.12704 4.58702,0.20642 9.51044,0.1764 l 8.95167,-0.0546 z m -18.31631,-0.99234 c -1.05822,-0.57488 -1.28483,-1.65588 -1.28483,-6.12905 0,-4.34085 0.26333,-5.60266 1.28312,-6.14844 0.33914,-0.18149 2.80219,-0.28588 6.74575,-0.28588 h 6.21159 l 0.68498,0.81405 c 0.68288,0.81158 0.68498,0.82893 0.68498,5.7089 v 4.89484 l -0.77341,0.7734 -0.7734,0.7734 -6.03962,-0.0106 c -4.73285,-0.008 -6.19098,-0.0928 -6.73916,-0.39062 z m 13.00266,-0.9217 c 0.48924,-0.48924 0.52918,-0.88194 0.52918,-5.20469 0,-3.97932 -0.0652,-4.74756 -0.4379,-5.15937 -0.39966,-0.44163 -0.961,-0.48386 -6.43172,-0.48386 -4.75474,0 -6.10001,0.0775 -6.50743,0.37503 -0.46827,0.34195 -0.52087,0.78044 -0.59613,4.97057 -0.0783,4.35763 -0.0533,4.6327 0.48223,5.31351 l 0.56476,0.71798 h 5.93392 c 5.58116,0 5.96539,-0.0315 6.46309,-0.52917 z m -3.40835,-7.24443 c -0.94662,-0.95852 -1.30275,-1.48735 -1.09013,-1.61876 0.35626,-0.22018 2.91099,2.15086 2.91099,2.70168 0,0.60062 -0.38346,0.37257 -1.82086,-1.08292 z m 1.2089,-1.17057 c -0.78891,-0.82344 -0.88277,-1.11 -0.36359,-1.11 0.45546,0 1.82959,1.43901 1.59661,1.67199 -0.29962,0.29963 -0.4912,0.21232 -1.23302,-0.56199 z m 4.37761,5.71702 c 0.13718,-0.41156 2.84728,-0.48772 2.85198,-0.0801 0.002,0.14552 -0.6652,0.30064 -1.48193,0.34473 -1.12823,0.0609 -1.45736,-0.003 -1.37005,-0.26459 z m 0.12679,-2.22902 c -0.47095,-0.47095 -0.0772,-0.64961 1.26998,-0.57631 0.80204,0.0436 1.48665,0.19841 1.52135,0.34394 0.0723,0.30322 -2.50585,0.51785 -2.79133,0.23237 z m -0.12213,-2.81206 c 0.0698,-0.20947 0.62765,-0.33073 1.52136,-0.33073 0.89369,0 1.45153,0.12126 1.52135,0.33073 0.0803,0.24074 -0.33367,0.33073 -1.52135,0.33073 -1.1877,0 -1.60161,-0.09 -1.52136,-0.33073 z"
       style="fill:#000000;stroke-width:0.264583"
       id="path621" /></g></svg>
