<?xml version="1.0" encoding="UTF-8" standalone="no"?>
<!-- Created with Inkscape (http://www.inkscape.org/) -->

<svg
   width="26.193741mm"
   height="24.817564mm"
   viewBox="0 0 26.193741 24.817563"
   version="1.1"
   id="svg5"
   xml:space="preserve"
   inkscape:version="1.2.2 (732a01da63, 2022-12-09)"
   sodipodi:docname="Анимация-dark.svg"
   xmlns:inkscape="http://www.inkscape.org/namespaces/inkscape"
   xmlns:sodipodi="http://sodipodi.sourceforge.net/DTD/sodipodi-0.dtd"
   xmlns="http://www.w3.org/2000/svg"
   xmlns:svg="http://www.w3.org/2000/svg"><sodipodi:namedview
     id="namedview7"
     pagecolor="#ffffff"
     bordercolor="#000000"
     borderopacity="0.25"
     inkscape:showpageshadow="2"
     inkscape:pageopacity="0.0"
     inkscape:pagecheckerboard="0"
     inkscape:deskcolor="#d1d1d1"
     inkscape:document-units="mm"
     showgrid="false"
     inkscape:zoom="0.24542999"
     inkscape:cx="-101.86204"
     inkscape:cy="61.117225"
     inkscape:window-width="1366"
     inkscape:window-height="705"
     inkscape:window-x="-8"
     inkscape:window-y="-8"
     inkscape:window-maximized="1"
     inkscape:current-layer="layer1" /><defs
     id="defs2" /><g
     inkscape:label="Слой 1"
     inkscape:groupmode="layer"
     id="layer1"
     transform="translate(398.77791,-111.18848)"><path
       d="m -394.0165,135.58073 c -5.3e-4,-0.25466 -0.12561,-2.10862 -0.27782,-4.11991 l -0.27676,-3.65688 -2.10341,-3.37503 c -1.15688,-1.85627 -2.10342,-3.4996 -2.10342,-3.65184 0,-0.15224 1.71087,-0.97383 3.80193,-1.82575 l 3.80194,-1.54895 2.59979,-3.11473 c 1.42989,-1.7131 2.72535,-3.1077 2.87879,-3.09912 0.15345,0.009 1.443,1.41723 2.86566,3.13032 l 2.58667,3.11471 3.82948,1.5248 c 2.10622,0.83864 3.82948,1.63109 3.82948,1.76101 0,0.12991 -0.90707,1.68285 -2.01572,3.45098 -1.10866,1.76812 -2.11112,3.58538 -2.22771,4.03836 -0.11658,0.45298 -0.29355,2.35016 -0.39326,4.21598 -0.13699,2.56359 -0.2732,3.42765 -0.55754,3.53676 -0.20694,0.0794 -2.07182,-0.28007 -4.14418,-0.79885 l -3.76793,-0.94323 -3.56714,0.90606 c -4.12785,1.04849 -4.75733,1.10871 -4.75885,0.45531 z m 8.23376,-1.9121 c 0.38063,-0.003 2.04751,0.3503 3.70417,0.78593 1.65666,0.43564 3.21101,0.79283 3.45411,0.79375 0.55363,0.002 0.67048,-0.59623 0.89227,-4.56866 l 0.17393,-3.11514 2.07703,-3.31604 2.07704,-3.31604 -1.11135,-0.47002 c -0.61123,-0.25851 -2.24811,-0.91715 -3.63749,-1.46364 l -2.52615,-0.99363 -2.50093,-3.017 -2.50093,-3.017 -1.05834,1.25052 c -4.29638,5.07653 -3.9354,4.77937 -7.54062,6.20721 -1.819,0.72042 -3.39331,1.39264 -3.49845,1.49384 -0.10513,0.10119 0.7223,1.61006 1.83874,3.35303 l 2.02988,3.16905 0.25538,3.99457 0.25539,3.99457 3.46213,-0.87958 c 1.90418,-0.48378 3.77356,-0.88235 4.15419,-0.88572 z m -2.01497,-3.50036 c -1.32946,-0.46472 -2.51354,-1.49625 -2.51354,-2.18971 v -0.62992 l 3.50573,0.0472 c 1.92815,0.0259 3.95274,-0.002 4.4991,-0.061 1.21818,-0.13266 1.42594,0.0483 1.10456,0.96213 -0.37233,1.05871 -2.70222,2.19639 -4.44325,2.16963 -0.74737,-0.0115 -1.71604,-0.14574 -2.1526,-0.29834 z m 4.74306,-1.10054 c 1.45517,-0.79083 1.58128,-1.3272 0.24566,-1.04483 -1.29858,0.27454 -4.37142,0.27772 -5.91476,0.006 l -1.19063,-0.20954 0.70183,0.70691 c 0.83198,0.83801 2.89488,1.45327 4.19296,1.25056 0.50933,-0.0795 1.39355,-0.39868 1.96494,-0.70921 z m -7.17678,-4.79827 c -1.49124,-1.04451 -0.65249,-3.80148 1.1645,-3.82771 1.54272,-0.0223 2.67001,1.31103 2.31257,2.7352 -0.34225,1.36365 -2.23907,1.95964 -3.47707,1.09251 z m 2.24256,-0.54384 c 1.09487,-0.76688 0.51947,-2.56468 -0.82085,-2.56468 -0.95764,0 -1.50153,0.50945 -1.50153,1.40645 0,0.71595 0.79165,1.57011 1.45521,1.57011 0.15352,0 0.54375,-0.18535 0.86717,-0.41188 z m 3.78224,0.24391 c -0.74223,-0.9436 -0.70233,-2.08338 0.10106,-2.88676 1.35736,-1.35736 3.5839,-0.43389 3.5839,1.48643 0,0.68636 -0.17965,1.21878 -0.52917,1.5683 -0.80913,0.80913 -2.45616,0.72146 -3.15579,-0.16797 z m 2.62663,-0.3612 c 0.83312,-0.83312 0.66904,-1.7552 -0.41363,-2.32451 -1.33758,-0.70336 -2.5915,1.19659 -1.54957,2.34791 0.58927,0.65114 1.2971,0.6427 1.9632,-0.0234 z"
       style="fill:#fefefe;stroke-width:0.264583;fill-opacity:1"
       id="path1018" /></g></svg>
