<?xml version="1.0" encoding="UTF-8" standalone="no"?>
<!-- Created with Inkscape (http://www.inkscape.org/) -->

<svg
   width="24.902294mm"
   height="23.702929mm"
   viewBox="0 0 24.902295 23.702926"
   version="1.1"
   id="svg5"
   xml:space="preserve"
   inkscape:version="1.2.2 (732a01da63, 2022-12-09)"
   sodipodi:docname="Вестерн-dark.svg"
   xmlns:inkscape="http://www.inkscape.org/namespaces/inkscape"
   xmlns:sodipodi="http://sodipodi.sourceforge.net/DTD/sodipodi-0.dtd"
   xmlns="http://www.w3.org/2000/svg"
   xmlns:svg="http://www.w3.org/2000/svg"><sodipodi:namedview
     id="namedview7"
     pagecolor="#ffffff"
     bordercolor="#000000"
     borderopacity="0.25"
     inkscape:showpageshadow="2"
     inkscape:pageopacity="0.0"
     inkscape:pagecheckerboard="0"
     inkscape:deskcolor="#d1d1d1"
     inkscape:document-units="mm"
     showgrid="false"
     inkscape:zoom="0.49085999"
     inkscape:cx="224.09649"
     inkscape:cy="287.25095"
     inkscape:window-width="1366"
     inkscape:window-height="705"
     inkscape:window-x="-8"
     inkscape:window-y="-8"
     inkscape:window-maximized="1"
     inkscape:current-layer="layer1" /><defs
     id="defs2" /><g
     inkscape:label="Слой 1"
     inkscape:groupmode="layer"
     id="layer1"
     transform="translate(376.60973,-111.65368)"><path
       d="m -376.20746,135.1273 c -0.0839,-0.13572 -0.2281,-1.73798 -0.32047,-3.56058 -0.19506,-3.84874 0.13518,-5.16139 1.6284,-6.47244 0.95343,-0.83712 1.12662,-1.35726 0.81831,-2.45759 -0.13147,-0.46923 -0.42782,-0.74634 -0.90195,-0.84347 -0.38838,-0.0795 -0.94428,-0.33063 -1.23532,-0.55795 -0.51549,-0.40262 -0.51636,-0.42321 -0.0335,-0.79704 0.3007,-0.23281 0.78647,-0.32557 1.23511,-0.23584 0.62161,0.12432 0.80346,0.0242 1.14081,-0.62817 0.30692,-0.59352 0.9966,-1.04501 2.93207,-1.91947 1.39193,-0.62887 2.53076,-1.22028 2.53076,-1.31423 0,-0.094 -0.65786,-0.49346 -1.46192,-0.8878 -1.61757,-0.79334 -2.1891,-1.69294 -1.79739,-2.82917 0.37771,-1.09562 3.25931,-1.35672 3.25931,-0.29532 0,0.3278 0.63689,0.75286 2.14282,1.43012 l 2.14282,0.96368 2.09051,-0.9556 c 1.45309,-0.66422 2.09052,-1.09709 2.09052,-1.41964 0,-0.62057 0.45299,-0.75864 1.93933,-0.59111 1.02226,0.11522 1.2705,0.2494 1.39749,0.75539 0.0849,0.3384 0.0521,0.94781 -0.0731,1.35424 -0.19244,0.62507 -0.85684,1.05018 -4.31091,2.75829 -2.43592,1.20461 -4.16177,2.21872 -4.27765,2.51354 -0.10683,0.27181 -0.20261,0.99022 -0.21284,1.59645 -0.0162,0.95996 -0.15522,1.21047 -1.07693,1.94047 -1.13555,0.89937 -1.28962,1.33075 -0.66146,1.85208 0.6413,0.53222 0.45939,1.4231 -0.47561,2.32935 -0.97677,0.94672 -1.85936,1.07357 -2.81455,0.40453 -0.60614,-0.42456 -0.65306,-0.41407 -1.2495,0.27934 -0.82567,0.9599 -0.7866,1.39065 0.31844,3.51069 1.09404,2.09894 1.1739,1.95158 -1.85673,3.42636 -1.8876,0.91856 -2.63764,1.0865 -2.90686,0.65089 z m 3.03859,-1.47651 1.84577,-0.92952 -0.79405,-1.40698 c -1.0961,-1.94219 -1.08531,-3.30454 0.0342,-4.31833 0.45554,-0.41252 1.05649,-0.98815 1.33544,-1.2792 0.27896,-0.29104 0.76695,-0.79705 1.08442,-1.12448 0.31748,-0.32742 0.72855,-0.59531 0.91353,-0.59531 0.18495,0 0.33629,-0.12602 0.33629,-0.28004 0,-0.15403 0.53023,-0.7626 1.1783,-1.3524 1.09658,-0.99798 1.18374,-1.1758 1.25677,-2.56422 l 0.0785,-1.49188 4.03711,-1.98437 c 3.89853,-1.91626 4.98242,-2.72523 4.68608,-3.49747 -0.1879,-0.48966 -1.97631,-0.49523 -1.97631,-0.006 0,0.19762 -1.12656,0.88217 -2.50347,1.52124 l -2.50346,1.16193 -2.52362,-1.1793 c -1.38799,-0.64861 -2.52363,-1.33317 -2.52363,-1.52123 0,-0.56374 -1.79245,-0.43981 -1.94259,0.13431 -0.0685,0.26194 -0.0166,0.47625 0.11528,0.47625 0.13189,0 0.23981,0.17709 0.23981,0.39355 0,0.22203 0.80717,0.80003 1.85208,1.32624 1.01865,0.51298 1.85209,1.05475 1.85209,1.20394 0,0.14918 -1.35718,0.90894 -3.01596,1.68835 -2.10225,0.98779 -3.06965,1.58627 -3.19317,1.97546 -0.0975,0.30709 -0.49646,0.73169 -0.88665,0.94356 -0.62024,0.33678 -0.64127,0.38654 -0.16727,0.3958 0.36925,0.007 0.64349,0.29084 0.85989,0.88928 0.53132,1.46933 0.38778,2.03427 -0.85428,3.36213 -1.49729,1.60072 -1.83282,2.80955 -1.60592,5.78565 0.19799,2.59696 0.32768,3.20271 0.68571,3.20271 0.13934,0 1.08395,-0.41829 2.09913,-0.92952 z m 5.22197,-8.3309 c -0.10066,-0.53331 -1.09598,-0.64887 -1.49085,-0.17309 -0.2499,0.3011 -0.22831,0.47001 0.10231,0.80063 0.34308,0.34309 0.51366,0.36015 0.94124,0.0942 0.28721,-0.17867 0.4885,-0.50344 0.4473,-0.72172 z m 12.56435,8.98923 c -1.53214,-0.75146 -2.18281,-1.21291 -2.18281,-1.54805 0,-0.26261 0.35503,-1.12157 0.78895,-1.9088 0.95919,-1.74017 0.98983,-2.37007 0.16213,-3.33234 -0.60973,-0.70884 -0.65776,-0.72056 -1.14531,-0.27933 -0.72107,0.65255 -1.75062,0.57095 -2.68175,-0.21254 -1.06594,-0.89692 -1.22762,-1.52827 -0.64658,-2.52486 l 0.47985,-0.82303 -1.12448,-0.97328 c -1.08119,-0.93582 -1.12448,-1.03223 -1.12448,-2.50403 v -1.53073 l 1.71398,-0.77716 c 0.94269,-0.42743 1.92832,-0.77716 2.19028,-0.77716 0.26196,0 1.33758,0.41276 2.39026,0.91724 1.36564,0.65446 1.98882,1.11413 2.17524,1.60444 0.20343,0.53507 0.42237,0.67461 0.98899,0.63035 2.03274,-0.15876 2.28416,0.56761 0.47367,1.36848 -0.98998,0.43791 -1.20796,0.67057 -1.35309,1.44417 -0.15454,0.82377 -0.0561,1.04896 0.92283,2.11098 0.60269,0.65385 1.21158,1.49332 1.35308,1.86546 0.28855,0.75895 0.31327,5.1675 0.0392,6.99221 -0.23658,1.57513 -0.66806,1.60768 -3.41997,0.25798 z m 2.94154,-2.65944 c 0.28734,-3.4521 0.006,-4.65075 -1.41716,-6.03161 -0.56512,-0.54842 -1.10777,-1.31703 -1.20591,-1.70801 -0.22373,-0.89143 0.52013,-2.55473 1.14915,-2.56952 0.31775,-0.007 0.24587,-0.12184 -0.2438,-0.38792 -0.38192,-0.20754 -0.75559,-0.61131 -0.83036,-0.89726 -0.0831,-0.31779 -0.8761,-0.89264 -2.03982,-1.47868 l -1.90386,-0.95876 -1.63741,0.76623 c -1.63227,0.76383 -1.63742,0.7698 -1.63742,1.89817 0,1.01171 0.12008,1.23033 1.13049,2.05829 0.62177,0.5095 1.1305,1.06154 1.1305,1.22677 0,0.16523 0.37229,0.46521 0.82731,0.66662 0.45502,0.20141 1.01919,0.70055 1.25373,1.10921 0.23453,0.40865 0.69596,0.86581 1.02538,1.0159 0.66184,0.30156 1.65354,1.76036 1.65509,2.43465 5.3e-4,0.23715 -0.40151,1.23088 -0.89344,2.2083 l -0.89442,1.77713 1.88221,0.90202 c 1.03521,0.49612 2.00325,0.86251 2.15119,0.81421 0.14794,-0.0483 0.37229,-1.32889 0.49855,-2.84574 z m -6.44727,-5.66833 c 0.40689,-0.49028 -0.0661,-1.19063 -0.8041,-1.19063 -0.64597,0 -0.8013,0.56165 -0.31099,1.12448 0.49317,0.56613 0.69043,0.57783 1.11509,0.0661 z"
       style="fill:#e4e0d4;stroke-width:0.264583;fill-opacity:1"
       id="path712" /></g></svg>
