<?xml version="1.0" encoding="UTF-8" standalone="no"?>
<!-- Created with Inkscape (http://www.inkscape.org/) -->

<svg
   width="25.897823mm"
   height="25.594378mm"
   viewBox="0 0 25.897823 25.594376"
   version="1.1"
   id="svg5"
   xml:space="preserve"
   inkscape:version="1.2.2 (732a01da63, 2022-12-09)"
   sodipodi:docname="Война-light.svg"
   xmlns:inkscape="http://www.inkscape.org/namespaces/inkscape"
   xmlns:sodipodi="http://sodipodi.sourceforge.net/DTD/sodipodi-0.dtd"
   xmlns="http://www.w3.org/2000/svg"
   xmlns:svg="http://www.w3.org/2000/svg"><sodipodi:namedview
     id="namedview7"
     pagecolor="#ffffff"
     bordercolor="#000000"
     borderopacity="0.25"
     inkscape:showpageshadow="2"
     inkscape:pageopacity="0.0"
     inkscape:pagecheckerboard="0"
     inkscape:deskcolor="#d1d1d1"
     inkscape:document-units="mm"
     showgrid="false"
     inkscape:zoom="0.24542999"
     inkscape:cx="-40.744817"
     inkscape:cy="73.34067"
     inkscape:window-width="1366"
     inkscape:window-height="705"
     inkscape:window-x="-8"
     inkscape:window-y="-8"
     inkscape:window-maximized="1"
     inkscape:current-layer="layer1" /><defs
     id="defs2" /><g
     inkscape:label="Слой 1"
     inkscape:groupmode="layer"
     id="layer1"
     transform="translate(398.83508,-111.98427)"><path
       d="m -394.39999,137.18806 c -0.73893,-0.40094 -1.52468,-1.61244 -1.52468,-2.35081 0,-0.26422 -0.24243,-0.41001 -0.68181,-0.41001 -1.08061,0 -2.2286,-1.32868 -2.2286,-2.57936 0,-1.68602 1.4927,-2.71231 3.94496,-2.71231 0.88551,0 1.39493,-0.14392 1.69911,-0.48002 0.40372,-0.44611 0.3984,-0.55066 -0.0753,-1.47985 -0.73334,-1.43842 -0.90561,-3.44926 -0.44393,-5.18193 0.43443,-1.63042 0.26037,-1.95755 -0.92672,-1.74171 -1.88861,0.34339 -3.79293,-1.02488 -3.7457,-2.69129 0.0327,-1.15469 1.2637,-2.44812 2.32991,-2.44812 0.51916,0 0.65728,-0.13473 0.65728,-0.64115 0,-0.92953 1.19584,-2.22144 2.23705,-2.41678 1.81019,-0.33959 3.05202,1.15863 3.05363,3.68411 10e-4,1.48122 0.0282,1.54478 0.5963,1.38988 2.53289,-0.69068 3.89269,-0.77162 5.65536,-0.33664 0.9837,0.24275 1.87177,0.35115 1.9735,0.24087 0.10172,-0.11027 0.23654,-0.96233 0.2996,-1.89347 0.10256,-1.5146 0.20699,-1.77549 0.99113,-2.47612 0.73679,-0.65832 1.02884,-0.7589 1.83236,-0.63106 1.0962,0.17441 2.09507,1.16965 2.32432,2.31586 0.1187,0.59351 0.298,0.7645 0.80163,0.7645 0.36425,0 0.9879,0.33916 1.42214,0.7734 0.9434,0.9434 1.03568,2.26138 0.23004,3.28559 -0.59509,0.75654 -2.26344,1.32974 -3.21704,1.10528 -1.01414,-0.23869 -1.38802,0.19242 -1.03789,1.1968 0.48463,1.39022 0.36309,4.19071 -0.23952,5.51892 -0.72833,1.60528 -0.32773,2.04289 2.00616,2.1915 1.88448,0.11999 2.9973,0.72855 3.40038,1.85953 0.48991,1.37459 -0.46987,2.99369 -1.95011,3.28974 -0.55588,0.11117 -0.81552,0.34887 -0.93029,0.85163 -0.19202,0.84122 -0.57912,1.36622 -1.44981,1.96632 -0.99341,0.68468 -1.80855,0.5546 -2.81186,-0.4487 -0.81655,-0.81656 -0.89995,-1.04244 -0.90363,-2.4474 -0.006,-2.12507 -0.24153,-2.43478 -1.27368,-1.67167 -0.77375,0.57205 -0.84241,0.57931 -1.48654,0.15727 -0.62655,-0.41053 -0.72308,-0.41119 -1.33677,-0.009 -0.61274,0.40148 -0.71018,0.40148 -1.32292,0 -0.61369,-0.40211 -0.71022,-0.40145 -1.33677,0.009 -0.64294,0.42127 -0.71299,0.41463 -1.46088,-0.13831 -0.43206,-0.31943 -0.90207,-0.50878 -1.04447,-0.42077 -0.14241,0.088 -0.25936,0.83761 -0.25991,1.66576 -10e-4,1.74252 -0.67105,3.09176 -1.73615,3.49671 -0.88567,0.33673 -1.16035,0.31559 -2.02985,-0.15619 z m 2.32381,-1.029 c 0.54153,-0.54154 0.64943,-0.90665 0.64943,-2.19756 0,-1.21909 0.1351,-1.73123 0.63564,-2.40968 0.82173,-1.11379 0.73331,-1.54887 -0.45251,-2.22656 l -0.96909,-0.55383 -0.59921,0.55052 c -0.4479,0.41152 -1.04638,0.57733 -2.37017,0.65668 -2.03742,0.12213 -2.85924,0.65208 -2.85924,1.84378 0,0.41401 0.23812,0.99087 0.52916,1.28191 0.58563,0.58563 1.83794,0.70206 2.32393,0.21608 0.48184,-0.48185 0.70873,-0.0333 0.36489,0.7213 -0.44668,0.98034 -0.3881,1.29118 0.38997,2.06925 0.86942,0.86941 1.52256,0.88274 2.3572,0.0481 z m 14.48873,0.11336 c 0.91303,-0.71818 1.11452,-1.46416 0.60537,-2.24122 -0.44899,-0.68524 -0.0938,-1.23397 0.44797,-0.69216 0.76161,0.76162 2.83444,-0.2019 2.83444,-1.31753 0,-1.35375 -1.11975,-2.09219 -3.17257,-2.09219 -0.9457,0 -1.56673,-0.16262 -2.08537,-0.54607 -0.71695,-0.53006 -0.76707,-0.53251 -1.70908,-0.0833 -1.13004,0.53888 -1.25749,1.21579 -0.40063,2.12786 0.40678,0.433 0.58997,1.00571 0.6402,2.00143 0.0387,0.76718 0.0799,1.5491 0.0916,1.73762 0.0293,0.47156 1.23617,1.64162 1.69335,1.64162 0.20526,0 0.67989,-0.24123 1.05471,-0.53607 z m -10.45263,-4.27935 c 0.17462,-0.17462 0.3175,-0.59134 0.3175,-0.92604 0,-0.36454 0.15913,-0.60854 0.39687,-0.60854 0.21828,0 0.39688,0.1654 0.39688,0.36756 0,0.20216 0.22448,0.64478 0.49884,0.98361 0.42766,0.52813 0.5598,0.56545 0.92604,0.2615 0.23496,-0.195 0.4272,-0.63763 0.4272,-0.98361 0,-0.38278 0.15538,-0.62906 0.39688,-0.62906 0.21828,0 0.39687,0.1654 0.39687,0.36756 0,0.20216 0.22448,0.64478 0.49884,0.98361 0.44151,0.54524 0.55119,0.57259 0.95434,0.23801 0.35221,-0.29231 0.42788,-0.66537 0.33372,-1.64531 l -0.12177,-1.2673 0.99535,-0.26802 c 2.1882,-0.58922 3.49289,-3.44655 2.87957,-6.30636 -0.40794,-1.90212 -1.63426,-3.42368 -3.54833,-4.40257 -2.83201,-1.44834 -6.76295,-0.95006 -8.96126,1.13592 -3.0745,2.9174 -2.3736,8.6285 1.17624,9.58437 0.9062,0.24402 1.00361,0.34276 0.76958,0.78005 -0.3797,0.70947 -0.33269,1.38361 0.14393,2.06408 0.46931,0.67003 0.67392,0.71933 1.12271,0.27054 z m 0.64823,-3.29731 c -0.50647,-0.20436 -0.40245,-0.66642 0.4541,-2.01705 0.92365,-1.45645 1.28826,-1.42499 2.14227,0.18484 0.8248,1.55476 0.59406,2.01288 -1.00057,1.98655 -0.69579,-0.0115 -1.4139,-0.0809 -1.5958,-0.15434 z m 2.30669,-0.81696 c -0.005,-0.10914 -0.19059,-0.43656 -0.41324,-0.7276 -0.40002,-0.5229 -0.40933,-0.52308 -0.78533,-0.0156 -0.5569,0.75166 -0.47353,0.94162 0.41323,0.94162 0.43656,0 0.78996,-0.0893 0.78534,-0.19844 z m -5.69216,-3.09683 c -0.91032,-0.91032 -0.86283,-2.08829 0.12397,-3.07508 0.82548,-0.82549 1.55338,-0.96186 2.48514,-0.4656 1.33182,0.70933 1.64307,2.28263 0.69101,3.49297 -0.75149,0.95537 -2.36908,0.97875 -3.30012,0.0477 z m 2.72401,-0.48237 c 0.50976,-0.39444 0.39183,-1.6413 -0.20645,-2.18274 -1.02725,-0.92965 -2.62236,0.16928 -2.27199,1.56525 0.27095,1.07955 1.48907,1.38304 2.47844,0.61749 z m 3.81643,0.51944 c -1.16609,-1.24125 -0.53937,-3.35428 1.11827,-3.77032 1.42785,-0.35836 3.04749,1.26128 2.68913,2.68913 -0.4231,1.68575 -2.64634,2.31708 -3.8074,1.08119 z m 2.72236,-0.69989 c 0.92431,-1.02135 -0.17406,-2.63559 -1.55714,-2.28846 -0.3253,0.0816 -0.73504,0.46358 -0.91053,0.84875 -0.69081,1.51615 1.33099,2.69573 2.46767,1.43971 z m -10.16257,-5.44933 c 0.8705,-0.89814 0.90754,-1.01498 0.81783,-2.57969 -0.11231,-1.95865 -0.60527,-3.02714 -1.50027,-3.25177 -1.36449,-0.34246 -2.73463,1.42506 -2.00738,2.58957 0.39285,0.62906 0.12744,1.15352 -0.3734,0.73785 -0.62434,-0.51815 -2.00921,-0.19283 -2.60797,0.61265 -0.50697,0.68199 -0.51872,0.79527 -0.15046,1.45138 0.56143,1.00025 1.45545,1.37235 3.30811,1.37686 1.49024,0.004 1.66522,-0.0616 2.51354,-0.93685 z m 16.58836,0.41448 c 1.02652,-0.62587 1.17383,-1.80563 0.33073,-2.64873 -0.56643,-0.56643 -1.96984,-0.71621 -2.26321,-0.24153 -0.33597,0.54363 -0.72074,-0.18502 -0.40713,-0.771 0.44079,-0.82363 0.35135,-1.33051 -0.36034,-2.0422 -0.77799,-0.77799 -1.4588,-0.82304 -2.28821,-0.15142 -0.51307,0.41545 -0.6428,0.83769 -0.78262,2.54704 l -0.1676,2.04904 0.95174,0.88537 c 0.8575,0.79771 1.10894,0.88599 2.53925,0.89155 1.12528,0.004 1.83786,-0.14648 2.44739,-0.51812 z"
       style="fill:#1b1813;stroke-width:0.264583;fill-opacity:1"
       id="path588" /></g></svg>
