<?xml version="1.0" encoding="UTF-8" standalone="no"?>
<!-- Created with Inkscape (http://www.inkscape.org/) -->

<svg
   width="22.981426mm"
   height="21.226709mm"
   viewBox="0 0 22.981426 21.226709"
   version="1.1"
   id="svg5"
   xml:space="preserve"
   inkscape:version="1.2.2 (732a01da63, 2022-12-09)"
   sodipodi:docname="Драма-dark.svg"
   xmlns:inkscape="http://www.inkscape.org/namespaces/inkscape"
   xmlns:sodipodi="http://sodipodi.sourceforge.net/DTD/sodipodi-0.dtd"
   xmlns="http://www.w3.org/2000/svg"
   xmlns:svg="http://www.w3.org/2000/svg"><sodipodi:namedview
     id="namedview7"
     pagecolor="#ffffff"
     bordercolor="#000000"
     borderopacity="0.25"
     inkscape:showpageshadow="2"
     inkscape:pageopacity="0.0"
     inkscape:pagecheckerboard="0"
     inkscape:deskcolor="#d1d1d1"
     inkscape:document-units="mm"
     showgrid="false"
     inkscape:zoom="0.24542999"
     inkscape:cx="-171.12823"
     inkscape:cy="252.61786"
     inkscape:window-width="1366"
     inkscape:window-height="705"
     inkscape:window-x="-8"
     inkscape:window-y="-8"
     inkscape:window-maximized="1"
     inkscape:current-layer="layer1" /><defs
     id="defs2" /><g
     inkscape:label="Слой 1"
     inkscape:groupmode="layer"
     id="layer1"
     transform="translate(380.15664,-57.365511)"><path
       d="m -373.09597,78.356961 c -3.12541,-0.86651 -5.61031,-3.82837 -6.68059,-7.96289 -0.48084,-1.85753 -0.51193,-6.3268 -0.0562,-8.08035 0.36149,-1.3909 0.11891,-1.35459 5.36813,-0.80339 3.08469,0.32391 5.79479,0.21107 10.05237,-0.41854 1.04725,-0.15486 1.10061,-0.12746 1.41938,0.72895 0.55904,1.50188 0.64929,6.18429 0.15942,8.27093 -1.37636,5.86271 -5.87118,9.48278 -10.26252,8.26529 z m 4.47514,-1.18692 c 1.40145,-0.71496 3.2828,-2.79785 4.09999,-4.53922 1.04686,-2.23075 1.35869,-4.08782 1.20573,-7.18058 -0.17063,-3.45003 -0.2906,-3.76681 -1.34661,-3.5556 -3.41228,0.68245 -9.66833,0.6812 -13.31368,-0.003 -0.82069,-0.15397 -0.86373,-0.11762 -1.17338,0.99086 -0.51284,1.83588 -0.37599,5.88767 0.26809,7.93723 1.73864,5.53265 6.31276,8.36364 10.25986,6.34998 z m -6.97525,-3.77132 c 0.34813,-1.81467 2.98922,-3.38784 5.04131,-3.00287 1.26067,0.2365 2.45845,1.03041 3.07143,2.03577 0.72809,1.19417 0.70094,1.88682 -0.0676,1.72363 -0.32742,-0.0695 -1.34127,-0.2862 -2.253,-0.48149 -1.68329,-0.36056 -1.68393,-0.36051 -5.32842,0.47728 -0.59842,0.13756 -0.6259,0.093 -0.46374,-0.75232 z m 3.44135,-0.66953 c 0.63277,-0.0867 1.78116,-0.0224 2.55197,0.14287 0.7708,0.1653 1.46273,0.23929 1.53762,0.1644 0.27263,-0.27264 -0.83563,-1.18952 -1.95416,-1.61669 -1.4174,-0.54131 -2.70378,-0.34357 -3.80768,0.58529 -0.97877,0.82359 -1.03884,1.27351 -0.1399,1.04789 0.3639,-0.0913 1.17937,-0.23703 1.81215,-0.32376 z m -4.50069,-5.10653 c -0.82153,-0.50093 -1.3199,-1.37732 -1.04041,-1.82956 0.078,-0.12623 0.82985,-0.30692 1.67073,-0.40153 0.84088,-0.0946 1.91582,-0.24403 2.38877,-0.33204 0.75444,-0.14041 0.85989,-0.0898 0.85989,0.4123 0,0.31479 -0.17982,0.92008 -0.39961,1.34511 -0.7177,1.38787 -2.02729,1.69113 -3.47937,0.80572 z m 2.54576,-0.86091 c 0.61942,-0.66487 0.70801,-1.12973 0.17642,-0.92574 -0.19967,0.0766 -0.91405,0.22194 -1.5875,0.32293 -1.3519,0.20273 -1.44087,0.29779 -0.76143,0.81355 0.69159,0.525 1.5661,0.44016 2.17251,-0.21074 z m 5.01704,0.59941 c -0.53304,-0.53304 -0.7734,-1.03692 -0.7734,-1.62132 v -0.84791 l 1.12448,0.20101 c 0.61846,0.11056 1.6883,0.2828 2.37742,0.38276 0.68912,0.1 1.32507,0.25388 1.41322,0.34203 0.33248,0.33248 -0.23095,1.31396 -1.03614,1.80493 -1.20725,0.73613 -2.19077,0.65331 -3.10558,-0.2615 z m 2.73233,-0.38867 c 0.6706,-0.50905 0.59098,-0.60055 -0.67342,-0.77386 -0.62505,-0.0857 -1.33942,-0.23365 -1.5875,-0.32885 -0.61604,-0.23639 -0.57226,0.29149 0.0781,0.94186 0.60587,0.60587 1.50891,0.67242 2.18281,0.16085 z m 3.78153,6.73652 c -0.0842,-0.13632 0.4228,-0.82385 1.12679,-1.52784 2.80175,-2.80175 4.09752,-7.82335 3.18772,-12.353596 l -0.30448,-1.51612 -1.74604,0.21522 c -2.25576,0.27806 -9.44195,0.27759 -11.70132,-7.9e-4 l -1.7532,-0.21599 -0.17702,0.94359 c -0.11158,0.5948 -0.32708,0.943626 -0.58293,0.943626 -0.31993,0 -0.36629,-0.18216 -0.21889,-0.859896 0.35279,-1.62206 0.62253,-2.09411 1.112,-1.94602 2.45281,0.7421 10.29544,0.921 13.4274,0.30629 1.01865,-0.19992 1.94294,-0.27733 2.054,-0.172 0.34259,0.32492 0.97952,3.782576 0.97952,5.317456 0,2.03857 -0.6389,4.82695 -1.54061,6.72371 -1.13858,2.39504 -3.42653,4.84849 -3.86294,4.14236 z"
       style="fill:#fefefe;stroke-width:0.264583;fill-opacity:1"
       id="path758" /></g></svg>
