<?xml version="1.0" encoding="UTF-8" standalone="no"?>
<!-- Created with Inkscape (http://www.inkscape.org/) -->

<svg
   width="22.754169mm"
   height="25.128283mm"
   viewBox="0 0 22.75417 25.128281"
   version="1.1"
   id="svg5"
   xml:space="preserve"
   inkscape:version="1.2.2 (732a01da63, 2022-12-09)"
   sodipodi:docname="Историческое-dark.svg"
   xmlns:inkscape="http://www.inkscape.org/namespaces/inkscape"
   xmlns:sodipodi="http://sodipodi.sourceforge.net/DTD/sodipodi-0.dtd"
   xmlns="http://www.w3.org/2000/svg"
   xmlns:svg="http://www.w3.org/2000/svg"><sodipodi:namedview
     id="namedview7"
     pagecolor="#ffffff"
     bordercolor="#000000"
     borderopacity="0.25"
     inkscape:showpageshadow="2"
     inkscape:pageopacity="0.0"
     inkscape:pagecheckerboard="0"
     inkscape:deskcolor="#d1d1d1"
     inkscape:document-units="mm"
     showgrid="false"
     inkscape:zoom="0.49085999"
     inkscape:cx="-59.079983"
     inkscape:cy="307.62336"
     inkscape:window-width="1366"
     inkscape:window-height="705"
     inkscape:window-x="-8"
     inkscape:window-y="-8"
     inkscape:window-maximized="1"
     inkscape:current-layer="layer1" /><defs
     id="defs2" /><g
     inkscape:label="Слой 1"
     inkscape:groupmode="layer"
     id="layer1"
     transform="translate(378.74866,-106.22166)"><path
       d="m -377.22731,130.00503 c -0.83674,-0.7376 -1.52135,-1.54554 -1.52135,-1.79543 0,-0.56925 0.50379,-1.08933 1.05522,-1.08933 0.23112,0 0.85384,-0.51874 1.38381,-1.15276 l 0.96359,-1.15276 -0.79092,-0.95953 c -0.77974,-0.94595 -0.78416,-0.96883 -0.31225,-1.61705 0.26327,-0.36163 0.63541,-0.66126 0.82698,-0.66583 0.46335,-0.0111 6.39857,5.24471 6.39857,5.66608 0,0.41303 -0.85623,1.20477 -1.30291,1.20477 -0.18436,0 -0.70112,-0.26056 -1.14835,-0.57902 l -0.81316,-0.57902 -1.01363,1.14221 c -0.55749,0.62822 -1.01362,1.34658 -1.01362,1.59635 0,0.39537 -0.76598,1.33667 -1.07917,1.32615 -0.0613,-0.002 -0.79606,-0.60723 -1.63281,-1.34483 z m 2.08517,-0.17278 c 0.19068,-0.78373 2.09948,-3.24114 2.51757,-3.24114 0.13968,0 0.68857,0.29531 1.21974,0.65624 0.72331,0.49151 1.02026,0.57453 1.18291,0.33073 0.21224,-0.31815 -1.49217,-2.07012 -4.23883,-4.35709 -1.38261,-1.15121 -2.06757,-0.88031 -0.99553,0.39374 0.372,0.44209 0.67339,1.02474 0.66975,1.29478 -0.008,0.56492 -1.96323,2.73993 -2.46357,2.73993 -0.18392,0 -0.46166,0.12726 -0.6172,0.28281 -0.2007,0.20069 0.072,0.62146 0.93927,1.44907 0.67214,0.64145 1.3091,1.16903 1.41547,1.1724 0.10637,0.003 0.27306,-0.32129 0.37042,-0.72147 z m 8.07243,-1.26648 c -0.74145,-0.32193 -0.86274,-0.48944 -0.73188,-1.01084 0.10825,-0.43128 -0.006,-0.77219 -0.36803,-1.09999 -0.28869,-0.26126 -0.52489,-0.62406 -0.52489,-0.80623 0,-0.18216 1.42156,-1.62223 3.15901,-3.20014 l 3.15901,-2.86892 0.016,-3.24115 c 0.0144,-2.92113 -0.0297,-3.2399 -0.44703,-3.22851 -1.41896,0.0387 -5.93679,0.72795 -6.12744,0.93479 -0.12328,0.13376 -1.13954,1.52312 -2.25834,3.08747 -1.1188,1.56435 -2.20262,2.84427 -2.40848,2.84427 -0.60167,0 -0.78125,-1.20943 -0.78125,-5.26171 v -3.80649 l 1.16007,-0.34329 c 1.4365,-0.42508 2.86018,-1.76681 3.24792,-3.06096 0.3636,-1.21361 0.58791,-1.27769 4.48862,-1.28227 4.02269,-0.005 4.63583,0.12467 4.81499,1.01614 0.34989,1.74093 1.57828,2.78618 4.21391,3.58569 0.4074,0.12358 0.46303,0.52131 0.46303,3.31073 0,3.81964 -0.29251,5.36764 -1.49175,7.89464 -1.64236,3.46071 -5.55291,6.94936 -7.76867,6.93052 -0.50932,-0.004 -1.32598,-0.18152 -1.81478,-0.39375 z m 3.36739,-0.78893 c 2.67651,-1.24596 5.46275,-4.80705 6.48525,-8.28878 0.47128,-1.60479 0.85587,-6.50108 0.59293,-7.54874 -0.11645,-0.46396 -0.35231,-0.69405 -0.71146,-0.69405 -1.33937,0 -3.56982,-1.99885 -3.86231,-3.46126 l -0.15441,-0.77207 h -3.91465 -3.91465 l -0.18221,0.82961 c -0.25619,1.16643 -2.17626,3.00811 -3.45431,3.3133 l -1.03573,0.24733 0.0136,3.4938 c 0.008,1.94823 0.13023,3.61042 0.27723,3.75742 0.1751,0.17511 0.94461,-0.70011 2.29173,-2.60656 l 2.02812,-2.87018 2.85402,-0.32162 c 1.56971,-0.17689 3.24098,-0.38658 3.71392,-0.46597 l 0.85989,-0.14436 v 3.82753 3.82752 l -1.52136,1.41159 c -0.83674,0.77637 -2.21273,2.05868 -3.05775,2.84958 l -1.53639,1.43801 0.5784,0.61566 c 0.35795,0.38102 0.52564,0.81736 0.44,1.14486 -0.10348,0.39571 0.0381,0.59386 0.56113,0.78557 1.00945,0.36998 1.08622,0.35931 2.649,-0.36819 z m -8.36571,-3.77688 c -0.76404,-0.68492 -1.38911,-1.39195 -1.38906,-1.57117 1.2e-4,-0.41038 4.88935,-7.2489 5.37825,-7.5225 0.1988,-0.11125 1.33223,-0.28324 2.51873,-0.38219 l 2.15727,-0.17991 v 2.36912 2.36913 l -3.41756,3.09287 c -1.87967,1.70109 -3.51677,3.08773 -3.63802,3.08143 -0.12125,-0.006 -0.84557,-0.57185 -1.60961,-1.25678 z m 5.28646,-2.8128 2.58498,-2.36123 v -1.94329 c 0,-1.87528 -0.0208,-1.93898 -0.59531,-1.8204 -0.32742,0.0676 -1.15977,0.19606 -1.84965,0.28548 l -1.25434,0.16258 -2.27869,3.20867 c -1.25328,1.76477 -2.33285,3.34979 -2.39903,3.52227 -0.0662,0.17248 0.38371,0.74505 0.99978,1.27238 1.29968,1.11248 0.71866,1.39455 4.79226,-2.32646 z"
       style="fill:#fefefe;stroke-width:0.264583;fill-opacity:1"
       id="path972" /></g></svg>
