<?xml version="1.0" encoding="UTF-8" standalone="no"?>
<!-- Created with Inkscape (http://www.inkscape.org/) -->

<svg
   width="22.97563mm"
   height="21.24184mm"
   viewBox="0 0 22.97563 21.24184"
   version="1.1"
   id="svg5"
   xml:space="preserve"
   inkscape:version="1.2.2 (732a01da63, 2022-12-09)"
   sodipodi:docname="Комедия-light.svg"
   xmlns:inkscape="http://www.inkscape.org/namespaces/inkscape"
   xmlns:sodipodi="http://sodipodi.sourceforge.net/DTD/sodipodi-0.dtd"
   xmlns="http://www.w3.org/2000/svg"
   xmlns:svg="http://www.w3.org/2000/svg"><sodipodi:namedview
     id="namedview7"
     pagecolor="#ffffff"
     bordercolor="#000000"
     borderopacity="0.25"
     inkscape:showpageshadow="2"
     inkscape:pageopacity="0.0"
     inkscape:pagecheckerboard="0"
     inkscape:deskcolor="#d1d1d1"
     inkscape:document-units="mm"
     showgrid="false"
     inkscape:zoom="0.34709043"
     inkscape:cx="118.12484"
     inkscape:cy="406.23419"
     inkscape:window-width="1366"
     inkscape:window-height="705"
     inkscape:window-x="-8"
     inkscape:window-y="-8"
     inkscape:window-maximized="1"
     inkscape:current-layer="layer1" /><defs
     id="defs2" /><g
     inkscape:label="Слой 1"
     inkscape:groupmode="layer"
     id="layer1"
     transform="translate(247.79752,38.82562)"><path
       d="m -240.29591,-17.716434 c -2.37182,-0.60314 -4.91625,-2.85087 -6.09045,-5.38026 -1.44095,-3.10396 -1.83846,-7.95774 -0.91276,-11.14495 0.28583,-0.98409 0.32906,-1.01411 1.26831,-0.88057 5.60981,0.79761 7.97059,0.79973 14.08684,0.0126 l 1.20819,-0.15548 0.31375,1.418 c 1.1422,5.1621 0.0775,10.18615 -2.86784,13.53219 -1.73914,1.97576 -4.87748,3.13973 -7.00604,2.59845 z m 4.03475,-1.26705 c 3.83108,-1.81451 6.33452,-8.06025 5.33722,-13.3156 -0.43339,-2.28374 0.13083,-2.09386 -4.80791,-1.618 -2.93177,0.28248 -7.44005,0.10584 -9.91091,-0.38834 -0.80064,-0.16012 -0.82044,-0.13867 -1.10762,1.20041 -1.34059,6.25094 1.59166,13.08177 6.25974,14.58245 1.00411,0.32279 3.0442,0.10047 4.22948,-0.46092 z m -4.59438,-2.00008 c -1.13162,-0.87921 -1.62427,-1.5284 -2.11928,-2.79268 -0.58789,-1.50153 -0.30565,-1.7587 1.37173,-1.24987 1.66854,0.50614 3.64858,0.50922 5.30002,0.008 1.69272,-0.5135 1.6957,-0.51302 1.6957,0.27486 0,1.31395 -1.32253,3.26465 -2.69884,3.98075 -1.08857,0.56639 -2.66177,0.4683 -3.54933,-0.2213 z m 3.63363,-0.75216 c 0.42594,-0.3033 1.02083,-1.03443 1.32198,-1.62473 l 0.54755,-1.07329 -0.61968,0.19749 c -1.13761,0.36254 -4.07446,0.46335 -5.1165,0.17563 -0.56632,-0.15637 -1.07492,-0.23907 -1.13022,-0.18378 -0.2152,0.2152 0.75456,1.70895 1.53679,2.36715 1.01965,0.85798 2.376,0.91346 3.46008,0.14153 z m -7.96879,-6.95055 c 0,-0.77905 1.05531,-1.94576 1.96696,-2.17457 1.37128,-0.34417 3.06012,0.86711 3.06012,2.19481 0,0.58477 -0.0743,0.60259 -2.51354,0.60259 -2.46315,0 -2.51354,-0.0125 -2.51354,-0.62283 z m 3.70416,-0.83238 c -0.34177,-0.3638 -0.87755,-0.66146 -1.19062,-0.66146 -0.31307,0 -0.84885,0.29766 -1.19063,0.66146 l -0.62141,0.66146 h 1.81204 1.81203 z m 3.70417,0.89958 c 0,-0.88908 1.64686,-2.35479 2.64583,-2.35479 0.99897,0 2.64584,1.46571 2.64584,2.35479 0,0.52741 -0.1344,0.55563 -2.64584,0.55563 -2.51144,0 -2.64583,-0.0282 -2.64583,-0.55563 z m 4.16802,-0.56885 c -0.0602,-0.1819 -0.42728,-0.50932 -0.8158,-0.72761 -0.6279,-0.35277 -0.78488,-0.35277 -1.41278,0 -1.29358,0.72678 -1.07228,1.05834 0.70639,1.05834 1.18724,0 1.6018,-0.0901 1.52219,-0.33073 z m 3.5049,6.65133 c 0,-0.17193 0.52576,-0.87468 1.16836,-1.56168 1.34265,-1.4354 2.29468,-3.1866 2.94095,-5.40967 0.35095,-1.20723 0.42316,-2.20882 0.32345,-4.48662 -0.1745,-3.98653 -0.15541,-3.95391 -2.1543,-3.68175 -1.77807,0.24209 -9.10148,0.29671 -11.781,0.0879 l -1.69733,-0.13229 -0.22846,0.85989 c -0.21634,0.81423 -0.57232,1.09911 -0.82655,0.66146 -0.0634,-0.10914 0.0541,-0.77028 0.26106,-1.4692 0.29318,-0.99001 0.47595,-1.24066 0.82726,-1.13451 2.5125,0.75918 10.13336,0.92488 13.43996,0.29223 1.13045,-0.2163 2.10778,-0.34085 2.17184,-0.27678 0.34754,0.34754 0.8387,3.46919 0.84229,5.35336 0.007,3.89725 -1.10776,7.20302 -3.19306,9.4653 -1.25982,1.36675 -2.09447,1.93756 -2.09447,1.43239 z"
       style="fill:#1b1813;stroke-width:0.264583;fill-opacity:1"
       id="path880" /></g></svg>
