<?xml version="1.0" encoding="UTF-8" standalone="no"?>
<!-- Created with Inkscape (http://www.inkscape.org/) -->

<svg
   width="25.554037mm"
   height="24.161007mm"
   viewBox="0 0 25.554038 24.161005"
   version="1.1"
   id="svg5"
   xml:space="preserve"
   inkscape:version="1.2.2 (732a01da63, 2022-12-09)"
   sodipodi:docname="Криминал-light.svg"
   xmlns:inkscape="http://www.inkscape.org/namespaces/inkscape"
   xmlns:sodipodi="http://sodipodi.sourceforge.net/DTD/sodipodi-0.dtd"
   xmlns="http://www.w3.org/2000/svg"
   xmlns:svg="http://www.w3.org/2000/svg"><sodipodi:namedview
     id="namedview7"
     pagecolor="#ffffff"
     bordercolor="#000000"
     borderopacity="0.25"
     inkscape:showpageshadow="2"
     inkscape:pageopacity="0.0"
     inkscape:pagecheckerboard="0"
     inkscape:deskcolor="#d1d1d1"
     inkscape:document-units="mm"
     showgrid="false"
     inkscape:zoom="0.49085999"
     inkscape:cx="246.50614"
     inkscape:cy="305.58612"
     inkscape:window-width="1366"
     inkscape:window-height="705"
     inkscape:window-x="-8"
     inkscape:window-y="-8"
     inkscape:window-maximized="1"
     inkscape:current-layer="layer1" /><defs
     id="defs2" /><g
     inkscape:label="Слой 1"
     inkscape:groupmode="layer"
     id="layer1"
     transform="translate(381.9713,-107.21532)"><path
       d="m -372.89868,131.21656 c -4.05671,-0.54876 -8.67532,-2.09383 -9.03118,-3.0212 -0.32398,-0.84427 1.27269,-1.98361 4.05527,-2.89374 0.75575,-0.24719 1.65974,-0.67413 2.0089,-0.94877 l 0.6348,-0.49934 -0.88375,-1.79947 c -2.47533,-5.04025 -1.16544,-12.20483 2.58081,-14.11603 1.38352,-0.70582 3.93701,-0.92846 5.92817,-0.51688 1.32543,0.27397 1.78645,0.52933 2.80475,1.55356 1.8707,1.88159 2.46167,3.66853 2.46167,7.44341 0,3.63641 -0.52294,5.27442 -2.43224,7.61853 l -1.20943,1.48485 0.98909,-0.58357 c 0.79443,-0.46873 1.09655,-0.52607 1.53513,-0.29135 0.30033,0.16073 1.38125,0.57631 2.40206,0.92351 2.93637,0.99872 4.14305,2.15786 4.55998,4.38032 0.1569,0.83634 0.10574,0.96822 -0.44034,1.13512 -0.98444,0.30087 -13.92312,0.40709 -15.96369,0.13105 z m 12.53429,-0.5039 c 1.65513,-0.13691 3.0684,-0.30802 3.14063,-0.38025 0.29207,-0.29206 -0.26361,-1.55923 -1.06499,-2.4286 -0.62972,-0.68316 -1.49897,-1.15754 -3.33635,-1.82078 -2.22716,-0.80393 -2.54407,-0.85806 -3.05688,-0.52206 -0.64888,0.42518 -3.48571,1.44047 -4.02479,1.44047 -0.76181,0 -0.28275,-0.69821 0.99843,-1.45521 2.66717,-1.57591 4.23649,-4.05023 4.71681,-7.43688 0.58704,-4.13919 -0.97163,-8.37711 -3.53793,-9.61944 -0.84231,-0.40776 -1.64056,-0.53847 -3.2883,-0.53847 -3.2953,0 -4.66304,0.86072 -5.99666,3.77372 -1.33635,2.91899 -1.15511,7.29298 0.4239,10.23003 0.94099,1.7503 0.96057,2.21371 0.12142,2.87379 -0.63763,0.50156 -0.9033,0.62019 -3.31812,1.48161 -0.65485,0.23359 -1.60735,0.68283 -2.11667,0.99828 l -0.92604,0.57357 1.5875,0.73472 c 4.16633,1.92826 11.83168,2.74452 19.67804,2.0955 z m -10.68221,-7.20239 c -1.6612,-0.942 -0.90237,-2.85883 1.13175,-2.85883 1.33151,0 2.17554,0.61589 2.17554,1.5875 0,1.32996 -1.90949,2.06397 -3.30729,1.27133 z m 2.50392,-0.86287 c 0.64391,-0.77586 -0.79388,-1.65118 -1.97476,-1.20221 -0.62329,0.23697 -0.88828,1.00789 -0.48507,1.41111 0.33098,0.33098 2.13921,0.17742 2.45983,-0.2089 z m -5.47339,-4.89916 c -1.44808,-0.88293 -1.39909,-2.7076 0.0827,-3.0795 2.70805,-0.67967 5.00265,1.56881 3.1157,3.05308 -0.87583,0.68894 -2.09524,0.69901 -3.19835,0.0264 z m 3.10176,-1.19133 c 0,-0.73584 -0.45469,-1.14256 -1.51425,-1.35447 -1.8867,-0.37734 -2.59156,1.21381 -0.90971,2.05362 1.15575,0.57712 2.42396,0.21132 2.42396,-0.69915 z m 2.17554,1.3014 c -0.8605,-0.60272 -0.80392,-2.02574 0.1091,-2.74392 0.91987,-0.72356 2.99761,-0.76052 3.62748,-0.0645 1.60899,1.77791 -1.6793,4.24941 -3.73658,2.80844 z m 2.28848,-0.4097 c 1.45252,-0.50635 1.71432,-1.92263 0.41564,-2.24857 -0.86975,-0.21829 -2.442,0.35894 -2.63515,0.96746 -0.20028,0.63107 0.0208,1.01281 0.75912,1.31071 0.31254,0.1261 0.58024,0.23681 0.5949,0.24604 0.0147,0.009 0.40414,-0.11482 0.86549,-0.27564 z"
       style="fill:#1b1813;stroke-width:0.264583;fill-opacity:1"
       id="path1061" /></g></svg>
