<?xml version="1.0" encoding="UTF-8" standalone="no"?>
<!-- Created with Inkscape (http://www.inkscape.org/) -->

<svg
   width="30.220861mm"
   height="27.369133mm"
   viewBox="0 0 30.220862 27.36913"
   version="1.1"
   id="svg5"
   xml:space="preserve"
   inkscape:version="1.2.2 (732a01da63, 2022-12-09)"
   sodipodi:docname="Мистика-light.svg"
   xmlns:inkscape="http://www.inkscape.org/namespaces/inkscape"
   xmlns:sodipodi="http://sodipodi.sourceforge.net/DTD/sodipodi-0.dtd"
   xmlns="http://www.w3.org/2000/svg"
   xmlns:svg="http://www.w3.org/2000/svg"><sodipodi:namedview
     id="namedview7"
     pagecolor="#ffffff"
     bordercolor="#000000"
     borderopacity="0.25"
     inkscape:showpageshadow="2"
     inkscape:pageopacity="0.0"
     inkscape:pagecheckerboard="0"
     inkscape:deskcolor="#d1d1d1"
     inkscape:document-units="mm"
     showgrid="false"
     inkscape:zoom="0.49085999"
     inkscape:cx="236.31993"
     inkscape:cy="301.51164"
     inkscape:window-width="1366"
     inkscape:window-height="705"
     inkscape:window-x="-8"
     inkscape:window-y="-8"
     inkscape:window-maximized="1"
     inkscape:current-layer="layer1" /><defs
     id="defs2" /><g
     inkscape:label="Слой 1"
     inkscape:groupmode="layer"
     id="layer1"
     transform="translate(379.72974,-109.01264)"><path
       d="m -368.70134,135.89655 c -0.68202,-0.2667 -1.66224,-0.74582 -2.17826,-1.06473 -1.20095,-0.74223 -2.87654,-2.68773 -2.57477,-2.98949 0.12967,-0.12968 0.95999,0.0165 1.90837,0.33601 1.10558,0.37244 2.14774,0.53582 3.0521,0.47845 1.0642,-0.0675 1.49896,0.0266 1.93165,0.41794 0.60601,0.54813 1.20725,2.36741 0.97898,2.96227 -0.19585,0.51037 -1.61737,0.44633 -3.11807,-0.14045 z m 2.43065,-0.5749 c 0,-0.15991 -0.19216,-0.69569 -0.42702,-1.19062 -0.42412,-0.89375 -0.4393,-0.89986 -2.23174,-0.89986 -0.99259,0 -2.1381,-0.12677 -2.54557,-0.28168 l -0.74086,-0.28167 0.64171,0.68306 c 1.32812,1.41371 5.30347,2.89097 5.30348,1.97077 z m 2.55455,-1.78061 c -0.77418,-0.85543 -0.48323,-1.66866 1.12472,-3.14372 1.15495,-1.05948 1.638,-1.34326 2.08678,-1.22591 0.81332,0.21271 0.73979,0.8531 -0.34542,3.00802 -0.82142,1.63113 -1.0164,1.84547 -1.67878,1.84547 -0.41218,0 -0.94646,-0.21774 -1.1873,-0.48386 z m 2.34024,-1.89739 c 0.51299,-1.01864 0.83485,-1.85209 0.71525,-1.85209 -0.22113,0 -2.96421,2.55418 -2.96421,2.76008 0,0.21285 0.83179,0.94409 1.07391,0.94409 0.1333,0 0.66207,-0.83343 1.17505,-1.85208 z m -9.26041,0.29851 c -2.40917,-0.62984 -4.36897,-2.22333 -5.436,-4.41995 -0.49444,-1.01785 -0.6331,-1.73622 -0.63445,-3.2869 -0.002,-2.56968 0.75012,-4.33086 2.53604,-5.93655 4.7154,-4.23956 12.39338,-1.48517 13.16183,4.72165 0.19065,1.53993 0.11942,1.50744 4.69099,2.13964 3.74537,0.51795 5.39532,1.0109 6.18028,1.84645 1.17605,1.25185 0.62207,3.38398 -0.99526,3.83055 -1.24948,0.34499 -2.8614,-0.002 -6.16517,-1.32614 -4.46451,-1.78972 -4.14058,-1.77415 -5.46287,-0.26256 -1.92539,2.201 -5.31956,3.36199 -7.87539,2.69381 z m 4.76786,-1.18681 c 0.76149,-0.3546 1.85129,-1.20025 2.55396,-1.98179 0.87352,-0.97156 1.42159,-1.36325 1.90755,-1.36325 0.37503,0 1.90465,0.48911 3.39916,1.08688 3.45075,1.38022 4.8805,1.81711 5.95845,1.82069 1.59442,0.005 2.51322,-1.74559 1.4657,-2.79311 -0.79118,-0.79117 -2.12233,-1.17683 -5.85368,-1.69586 -4.89498,-0.68089 -4.95498,-0.70822 -5.14886,-2.34519 -0.59476,-5.02186 -5.70473,-7.95527 -10.30962,-5.91829 -4.49803,1.98967 -5.58511,8.18487 -2.05555,11.71445 2.11172,2.1117 5.41983,2.71558 8.08289,1.47547 z m -5.03245,-1.8635 c -3.4411,-1.51659 -4.09306,-6.27474 -1.19401,-8.71413 1.82715,-1.53743 4.32834,-1.57446 6.45015,-0.0954 0.83711,0.58351 2.01411,2.85389 2.01584,3.88847 0.002,1.15105 -0.52118,2.60057 -1.25193,3.469 -1.35755,1.61336 -4.1344,2.28317 -6.02005,1.45211 z m 3.11609,-0.43911 c 5.01073,-1.39149 4.07065,-8.71534 -1.11869,-8.71534 -1.92822,0 -3.67227,1.36242 -4.24712,3.31775 -0.6229,2.11879 0.64375,4.52578 2.77889,5.28068 1.29706,0.45858 1.34824,0.4609 2.58692,0.11691 z m -4.03282,-2.87711 c -0.15064,-0.28148 -0.27389,-1.06729 -0.27389,-1.74624 0,-1.05113 0.1336,-1.36809 0.89958,-2.13408 0.78428,-0.78426 1.06994,-0.89957 2.22866,-0.89957 1.04383,0 1.50378,0.14701 2.14312,0.68499 0.44773,0.37673 0.81405,0.9239 0.81405,1.21591 0,0.88755 -0.98758,1.98526 -2.435,2.70655 -1.6656,0.82999 -2.98845,0.89756 -3.37652,0.17244 z m 3.20683,-0.8413 c 1.15422,-0.57789 2.10451,-1.70311 1.89639,-2.24547 -0.20222,-0.52698 -1.48703,-1.16395 -2.34772,-1.16395 -0.94479,0 -2.50023,1.55807 -2.50023,2.50448 0,0.38791 0.12383,0.93666 0.27517,1.21947 0.31405,0.58679 1.04859,0.50046 2.67639,-0.31453 z m -10.25069,-3.29268 c -1.21796,-2.0783 -1.14131,-4.35008 0.14678,-4.35008 0.61556,0 1.15168,0.6814 1.69412,2.15316 0.3899,1.05789 0.40544,1.37715 0.11271,2.3151 -0.45295,1.45128 -1.05519,1.41485 -1.95361,-0.11818 z m 1.08183,-2.23223 c -0.33549,-1.01006 -0.56724,-1.3241 -0.97715,-1.3241 -0.47643,0 -0.51651,0.11107 -0.35352,0.97989 0.10111,0.53893 0.43081,1.46166 0.73267,2.05051 l 0.54885,1.07064 0.24447,-0.72642 c 0.17539,-0.52116 0.1202,-1.10058 -0.19532,-2.05052 z m 17.35173,1.5733 c -0.15758,-0.73476 -0.28651,-2.01796 -0.28651,-2.85155 0,-1.86547 0.49603,-2.69168 1.616,-2.69168 0.65888,0 0.85895,0.15964 1.18849,0.94835 0.61835,1.4799 0.11376,4.1293 -1.01615,5.33551 -0.84204,0.89888 -1.18667,0.72893 -1.50183,-0.74063 z m 1.83113,-1.29768 c 0.62779,-2.25981 0.0339,-4.39383 -0.94917,-3.41074 -0.58855,0.58855 -0.73328,2.06822 -0.37236,3.80678 0.29539,1.42292 0.35306,1.51023 0.69157,1.04728 0.20312,-0.27778 0.48661,-0.92727 0.62996,-1.44332 z m -18.40934,-2.85648 c -1.19057,-2.53798 -1.46219,-4.2258 -0.76239,-4.73752 0.73308,-0.53604 1.61237,-0.42882 2.15653,0.26297 0.26767,0.34028 0.76915,1.59635 1.11443,2.79127 l 0.62778,2.17258 -0.74787,0.7806 c -0.41132,0.42934 -0.90057,0.78061 -1.08722,0.78061 -0.18664,0 -0.77221,-0.92273 -1.30126,-2.05051 z m 2.06498,-0.8564 c -0.21813,-0.65677 -0.565,-1.68966 -0.77082,-2.29528 -0.40652,-1.19615 -0.99084,-1.60267 -1.58945,-1.10586 -0.4742,0.39356 -0.32358,1.08552 0.77656,3.56754 0.82271,1.85612 0.84774,1.88202 1.40896,1.45871 0.54921,-0.41428 0.55599,-0.47726 0.17475,-1.62511 z m 1.93561,-0.93289 c -0.76891,-1.31205 -1.9964,-4.40865 -1.9964,-5.03633 0,-0.21856 0.31955,-0.51887 0.71011,-0.66736 1.46261,-0.55609 2.99406,0.84708 2.99406,2.74328 0,0.34381 0.29716,1.21084 0.66035,1.92673 0.84845,1.67237 0.83329,1.86277 -0.16426,2.06227 -1.35593,0.27119 -1.47458,0.21583 -2.20386,-1.02859 z m 1.83203,-0.40905 c -0.21382,-0.41349 -0.51968,-1.38283 -0.67969,-2.15407 -0.38043,-1.83364 -0.87812,-2.59291 -1.69963,-2.59291 -0.8164,0 -0.81762,0.27936 -0.0102,2.33956 0.96692,2.46728 1.64564,3.45541 2.26262,3.29406 0.47812,-0.12504 0.48737,-0.18965 0.12694,-0.88664 z m 3.67939,1.31859 c -0.66192,-0.19427 -1.0109,-0.59855 -1.75198,-2.0296 -1.21535,-2.34681 -1.38912,-3.13486 -0.86701,-3.9317 0.5686,-0.8678 1.55525,-0.82554 2.19905,0.0942 0.71382,1.01975 1.88222,4.0552 1.96827,5.11351 0.0812,0.99904 -0.21716,1.14428 -1.54832,0.75361 z m 0.95885,-0.76787 c 0,-0.42885 -1.32074,-3.79954 -1.73888,-4.43781 -0.55645,-0.8494 -1.43612,-0.79207 -1.43612,0.0936 0,0.90906 1.78102,4.27686 2.34022,4.42521 0.73882,0.19597 0.83478,0.18667 0.83478,-0.081 z"
       style="fill:#1b1813;stroke-width:0.264583;fill-opacity:1"
       id="path995" /></g></svg>
