<?xml version="1.0" encoding="UTF-8" standalone="no"?>
<!-- Created with Inkscape (http://www.inkscape.org/) -->

<svg
   width="29.090673mm"
   height="25.46736mm"
   viewBox="0 0 29.090674 25.467359"
   version="1.1"
   id="svg5"
   xml:space="preserve"
   inkscape:version="1.2.2 (732a01da63, 2022-12-09)"
   sodipodi:docname="Мюзикл-light.svg"
   xmlns:inkscape="http://www.inkscape.org/namespaces/inkscape"
   xmlns:sodipodi="http://sodipodi.sourceforge.net/DTD/sodipodi-0.dtd"
   xmlns="http://www.w3.org/2000/svg"
   xmlns:svg="http://www.w3.org/2000/svg"><sodipodi:namedview
     id="namedview7"
     pagecolor="#ffffff"
     bordercolor="#000000"
     borderopacity="0.25"
     inkscape:showpageshadow="2"
     inkscape:pageopacity="0.0"
     inkscape:pagecheckerboard="0"
     inkscape:deskcolor="#d1d1d1"
     inkscape:document-units="mm"
     showgrid="false"
     inkscape:zoom="0.49085999"
     inkscape:cx="305.58612"
     inkscape:cy="128.34617"
     inkscape:window-width="1366"
     inkscape:window-height="705"
     inkscape:window-x="-8"
     inkscape:window-y="-8"
     inkscape:window-maximized="1"
     inkscape:current-layer="layer1" /><defs
     id="defs2" /><g
     inkscape:label="Слой 1"
     inkscape:groupmode="layer"
     id="layer1"
     transform="translate(397.62612,-109.89407)"><path
       d="m -388.8595,135.27489 c -2.15509,-0.45607 -2.91396,-2.71267 -1.416,-4.21063 1.1284,-1.1284 2.68165,-1.51394 4.00505,-0.99409 l 1.05545,0.41459 0.0716,-5.33441 0.0715,-5.3344 5.94789,-0.83787 c 3.27134,-0.46082 6.03954,-0.78122 6.15156,-0.71199 0.11203,0.0692 0.20368,3.10133 0.20368,6.73799 0,7.56828 -0.0447,7.76352 -1.9942,8.70725 -3.7155,1.79865 -6.66283,-2.17553 -3.29747,-4.4463 0.74405,-0.50204 1.18604,-0.60454 2.24896,-0.52154 0.72761,0.0568 1.53128,0.19746 1.78594,0.31254 0.42909,0.19391 0.46302,-0.0668 0.46302,-3.55705 v -3.76629 l -0.99219,0.14719 c -0.5457,0.081 -2.98648,0.41057 -5.42396,0.73247 l -4.43177,0.58528 v 5.06331 c 0,4.1469 -0.0743,5.16937 -0.41044,5.6493 -0.76357,1.09015 -2.52433,1.68511 -4.03861,1.36465 z m 1.96302,-0.77095 c 0.16065,-0.002 0.60714,-0.29559 0.99219,-0.65244 1.79628,-1.66473 -0.0864,-3.88727 -2.59233,-3.06025 -2.69992,0.89106 -1.99208,4.3626 0.77888,3.81993 0.29104,-0.057 0.66061,-0.10526 0.82126,-0.10724 z m 12.60635,-2.10812 c 0.89846,-1.00547 0.91743,-1.59367 0.0768,-2.38337 -1.17914,-1.10774 -3.60292,-0.66139 -4.3895,0.80835 -1.16685,2.18027 2.55669,3.54013 4.31267,1.57502 z m -4.52623,-10.72679 c 2.67132,-0.36325 4.94625,-0.6609 5.05539,-0.66146 0.10914,-5.2e-4 0.19844,-0.41771 0.19844,-0.92704 0,-1.14957 0.12828,-1.14406 -6.08276,-0.26103 -2.54515,0.36185 -4.65851,0.65791 -4.69635,0.65791 -0.0378,0 -0.0688,0.41672 -0.0688,0.92604 0,0.61515 0.12374,0.92604 0.36857,0.92604 0.20271,0 2.55419,-0.29721 5.22552,-0.66046 z m -15.38367,9.25942 c 0,-0.21828 -0.17859,-0.39688 -0.39688,-0.39688 -0.21828,0 -0.39687,-0.17859 -0.39687,-0.39687 0,-0.21828 0.17859,-0.39688 0.39687,-0.39688 0.21829,0 0.39688,-0.17859 0.39688,-0.39687 0,-0.21828 0.17859,-0.39688 0.39687,-0.39688 0.21829,0 0.39688,0.1786 0.39688,0.39688 0,0.21828 0.17859,0.39687 0.39687,0.39687 0.21829,0 0.39688,0.1786 0.39688,0.39688 0,0.21828 -0.17859,0.39687 -0.39688,0.39687 -0.21828,0 -0.39687,0.1786 -0.39687,0.39688 0,0.21828 -0.17859,0.39687 -0.39688,0.39687 -0.21828,0 -0.39687,-0.17859 -0.39687,-0.39687 z m 23.60083,-2.03729 c -0.17462,-0.17463 -0.3175,-0.56753 -0.3175,-0.87313 0,-0.30559 0.14288,-0.6985 0.3175,-0.87312 0.17463,-0.17463 0.56753,-0.3175 0.87313,-0.3175 0.30559,0 0.6985,0.14287 0.87312,0.3175 0.17463,0.17462 0.3175,0.56753 0.3175,0.87312 0,0.3056 -0.14287,0.6985 -0.3175,0.87313 -0.17462,0.17462 -0.56753,0.3175 -0.87312,0.3175 -0.3056,0 -0.6985,-0.14288 -0.87313,-0.3175 z m 1.27,-0.87313 c 0,-0.21828 -0.17859,-0.39687 -0.39687,-0.39687 -0.21828,0 -0.39688,0.17859 -0.39688,0.39687 0,0.21828 0.1786,0.39688 0.39688,0.39688 0.21828,0 0.39687,-0.1786 0.39687,-0.39688 z m -24.2928,-1.47549 c -2.06544,-0.43451 -2.80123,-2.35862 -1.49541,-3.9105 1.06169,-1.26176 2.70726,-1.61809 4.41717,-0.95651 0.4216,0.16312 0.46269,-0.20863 0.52917,-4.78829 0.072,-4.95954 0.29002,-6.00876 0.90823,-4.37092 0.18403,0.48756 0.69323,0.9794 1.37298,1.32619 1.19277,0.6085 1.62733,1.21573 1.62733,2.27393 0,0.86647 -0.58339,0.75413 -0.79768,-0.15359 -0.13726,-0.58146 -1.60743,-1.83544 -2.15186,-1.83544 -0.12401,0 -0.22546,2.37211 -0.22546,5.27136 0,5.22709 -0.006,5.27793 -0.65693,6.05209 -0.75671,0.8993 -2.24809,1.36084 -3.52754,1.09168 z m 2.59697,-1.26758 c 1.7681,-1.30445 0.3809,-3.56404 -1.9071,-3.10645 -2.29497,0.459 -2.78116,2.88575 -0.73873,3.68726 0.61739,0.24229 1.91682,-0.043 2.64583,-0.58081 z m -5.29167,-6.29482 c -1.49118,-0.59847 -1.76463,-1.98016 -0.53084,-2.68223 0.43565,-0.24789 0.79283,-0.59679 0.79375,-0.77534 8e-4,-0.17855 0.29135,-0.51443 0.64539,-0.74641 0.73208,-0.47967 1.52563,-0.21616 1.99606,0.66284 0.37814,0.70655 0.33778,2.46421 -0.0694,3.02101 -0.3513,0.48044 -2.12368,0.80561 -2.83499,0.52013 z m 1.96274,-0.78 c 0.53695,-0.20605 0.5627,-1.92416 0.0394,-2.6331 -0.44501,-0.60293 -0.85376,-0.32272 -0.98759,0.67703 -0.0487,0.36381 -0.26715,0.67309 -0.48543,0.68731 -0.91699,0.0597 -1.05833,0.12518 -1.05833,0.49017 0,0.72561 1.44963,1.17855 2.4919,0.77859 z m 15.20405,-2.98327 c -1.07319,-1.07319 -1.37575,-2.32594 -0.69647,-2.88376 0.4204,-0.34523 3.66158,-0.33719 4.10104,0.0102 0.1819,0.14378 0.33073,0.6497 0.33073,1.12427 0,0.67103 -0.23546,1.07559 -1.0591,1.81969 -0.5825,0.52626 -1.19182,0.95683 -1.35404,0.95683 -0.16222,0 -0.75719,-0.46224 -1.32216,-1.0272 z m 2.5321,-0.85819 c 0.38276,-0.45488 0.65136,-0.9609 0.5969,-1.12448 -0.16873,-0.50682 -1.00207,-0.50083 -1.39825,0.0101 -0.35713,0.46054 -0.39178,0.46177 -0.65463,0.0233 -0.37679,-0.62861 -1.30957,-0.60692 -1.30957,0.0305 0,0.69373 1.00138,1.88777 1.58318,1.88777 0.26755,0 0.79961,-0.37218 1.18237,-0.82706 z m -7.4979,-2.2916 c -0.17235,-0.32203 -0.48776,-0.58551 -0.70092,-0.58551 -0.57416,0 -0.46993,-0.44591 0.1416,-0.60583 0.29104,-0.0761 0.52917,-0.32812 0.52917,-0.56002 0,-0.2319 0.11906,-0.42165 0.26458,-0.42165 0.14552,0 0.26458,0.18975 0.26458,0.42165 0,0.2319 0.23813,0.48391 0.52917,0.56002 0.62128,0.16247 0.71185,0.60583 0.12377,0.60583 -0.22298,0 -0.50287,0.26348 -0.622,0.58551 l -0.21659,0.58551 z"
       style="fill:#1b1813;stroke-width:0.264583;fill-opacity:1"
       id="path781" /></g></svg>
