<?xml version="1.0" encoding="UTF-8" standalone="no"?>
<!-- Created with Inkscape (http://www.inkscape.org/) -->

<svg
   width="24.65855mm"
   height="24.62952mm"
   viewBox="0 0 24.658551 24.629518"
   version="1.1"
   id="svg5"
   xml:space="preserve"
   inkscape:version="1.2.2 (732a01da63, 2022-12-09)"
   sodipodi:docname="Приключения-light.svg"
   xmlns:inkscape="http://www.inkscape.org/namespaces/inkscape"
   xmlns:sodipodi="http://sodipodi.sourceforge.net/DTD/sodipodi-0.dtd"
   xmlns="http://www.w3.org/2000/svg"
   xmlns:svg="http://www.w3.org/2000/svg"><sodipodi:namedview
     id="namedview7"
     pagecolor="#ffffff"
     bordercolor="#000000"
     borderopacity="0.25"
     inkscape:showpageshadow="2"
     inkscape:pageopacity="0.0"
     inkscape:pagecheckerboard="0"
     inkscape:deskcolor="#d1d1d1"
     inkscape:document-units="mm"
     showgrid="false"
     inkscape:zoom="0.49085999"
     inkscape:cx="220.02201"
     inkscape:cy="307.62336"
     inkscape:window-width="1366"
     inkscape:window-height="705"
     inkscape:window-x="-8"
     inkscape:window-y="-8"
     inkscape:window-maximized="1"
     inkscape:current-layer="layer1" /><defs
     id="defs2" /><g
     inkscape:label="Слой 1"
     inkscape:groupmode="layer"
     id="layer1"
     transform="translate(374.99178,-106.25836)"><path
       d="m -374.99177,130.44999 c 0,-0.24097 0.19108,-2.82883 0.42463,-5.75081 0.39307,-4.91797 0.39202,-5.556 -0.0142,-8.58758 -0.24137,-1.80119 -0.36524,-3.34851 -0.27525,-3.4385 0.09,-0.09 0.5131,0.037 0.94027,0.28215 1.00462,0.57657 0.97878,0.40919 -0.14937,-0.96758 -0.90042,-1.09884 -0.92604,-1.19366 -0.92604,-3.42681 v -2.29671 l 3.9026,0.20729 c 5.00463,0.26582 12.13362,0.26464 16.93335,-0.003 l 3.7703,-0.21008 v 2.92206 c 0,3.14603 -0.0848,3.30425 -1.40645,2.62509 -0.37608,-0.19324 -0.22228,0.0741 0.4404,0.76552 l 1.0183,1.06248 -0.31517,2.42496 c -0.23945,1.84234 -0.24225,2.84368 -0.0117,4.16775 0.16692,0.95853 0.20769,1.8362 0.0906,1.95039 -0.11709,0.11417 -0.8082,0.44756 -1.5358,0.74084 l -1.32293,0.53326 1.52137,0.0144 1.52134,0.0144 v 3.70417 3.70417 h -0.82736 c -0.45506,0 -3.16373,-0.13456 -6.01929,-0.29902 -4.00381,-0.23059 -6.06239,-0.22437 -8.99593,0.0272 -4.28715,0.36763 -4.38952,0.33388 -4.14212,-1.36585 0.22202,-1.52531 -0.25035,-1.40354 -0.75405,0.19439 l -0.45497,1.44331 h -1.70627 c -1.41168,0 -1.70627,-0.0756 -1.70627,-0.43811 z m 3.72886,-2.86918 c 1.13209,-3.68699 1.5628,-3.71407 1.5628,-0.0983 v 2.67987 l 2.97657,-0.23241 c 1.63711,-0.12783 4.34578,-0.20313 6.01927,-0.16731 l 3.04271,0.0651 -1.19063,-0.47689 c -1.05045,-0.42073 -1.18408,-0.56578 -1.13501,-1.23204 0.086,-1.16828 0.40001,-1.29442 1.89774,-0.76247 1.41278,0.50177 1.52055,0.67776 1.09708,1.79155 -0.31663,0.83279 -0.13348,0.88582 3.49801,1.01287 l 2.57969,0.0902 v -3.15054 -3.15053 l -0.8599,0.15023 c -0.47294,0.0826 -1.57392,0.17847 -2.44663,0.21299 -1.20973,0.0479 -1.60342,-0.028 -1.65693,-0.31921 -0.048,-0.261 0.6851,-0.66419 2.31435,-1.27294 2.57493,-0.9621 2.52711,-0.89628 2.13326,-2.93774 -0.14044,-0.7279 -0.11527,-2.07758 0.0654,-3.509 l 0.29362,-2.32614 -1.3768,-1.39411 c -1.28063,-1.29674 -1.6976,-2.03893 -1.14548,-2.03893 0.12723,0 0.73751,0.17859 1.35618,0.39687 0.61868,0.21828 1.16943,0.39688 1.2239,0.39688 0.0545,0 0.099,-0.96698 0.099,-2.14884 v -2.14883 l -4.69635,0.23061 c -5.86635,0.28805 -7.69421,0.28804 -13.89064,-5e-5 l -4.96094,-0.23065 v 1.66245 c 0,1.62747 0.0334,1.70561 1.5875,3.71456 0.87313,1.12866 1.5875,2.18099 1.5875,2.33851 0,0.47219 -0.61093,0.32716 -1.67895,-0.39858 -0.55441,-0.37673 -1.06477,-0.62824 -1.13411,-0.55889 -0.0693,0.0693 0.0405,1.35985 0.24409,2.86779 0.31045,2.2994 0.31539,3.42466 0.0306,6.97504 -0.18677,2.32834 -0.34688,4.79889 -0.35581,5.49011 l -0.0162,1.25678 h 1.04105 1.04105 z m 8.24352,0.74531 c -0.48021,-0.0973 -0.5953,-0.29869 -0.5953,-1.0415 v -0.92084 l 1.52135,0.0794 1.52136,0.0793 v 0.92604 c 0,0.87507 -0.051,0.92803 -0.92605,0.96215 -0.50933,0.0199 -1.19393,-0.0182 -1.52136,-0.0846 z m 2.05052,-0.84929 c 0,-0.30578 -0.66677,-0.55748 -1.47683,-0.55748 -0.39234,0 -0.63982,0.15352 -0.63982,0.39689 0,0.28663 0.29397,0.39687 1.05833,0.39687 0.58207,0 1.05833,-0.10633 1.05832,-0.23628 z m -4.77083,0.51941 c -0.94272,-0.29058 -1.84374,-0.88822 -1.84374,-1.22294 0,-0.15583 0.2313,-0.53161 0.51401,-0.83505 0.49831,-0.53488 0.55116,-0.53842 1.73117,-0.11604 1.15965,0.41509 1.21351,0.47936 1.13964,1.35952 -0.0833,0.99314 -0.40686,1.16412 -1.54108,0.81451 z m 0.98442,-0.96241 c 0.0457,-0.13712 -0.32852,-0.37815 -0.83161,-0.53562 -1.14965,-0.35982 -1.57664,0.23994 -0.46033,0.64658 0.79724,0.29042 1.16879,0.25851 1.29194,-0.11096 z m -4.11547,-1.65197 c -0.74846,-1.05112 -0.99118,-2.16635 -0.53444,-2.4556 0.87289,-0.55281 1.50108,-0.2586 2.10307,0.98496 l 0.59311,1.22521 -0.63565,0.4887 c -0.83394,0.64115 -0.90431,0.62993 -1.52609,-0.24327 z m 0.87375,-1.32687 c -0.23196,-0.46495 -0.53144,-0.77756 -0.66554,-0.69468 -0.36176,0.22358 -0.29695,0.7196 0.18368,1.4058 0.61967,0.88471 0.99883,0.32516 0.48186,-0.71112 z m 2.06721,-0.70641 c -0.37997,-0.43156 -0.44643,-1.45631 -0.0945,-1.45631 0.45537,0 0.56635,-0.87459 0.16699,-1.31587 -0.53578,-0.59202 -0.509,-1.15226 0.0806,-1.68583 0.62606,-0.56658 0.81547,-0.55229 1.52583,0.11506 l 0.58859,0.55295 0.55295,-0.55295 c 0.69853,-0.69853 0.85882,-0.69245 1.56516,0.0594 0.712,0.75791 0.71891,1.02772 0.042,1.64031 l -0.53326,0.48261 0.53326,0.56764 c 0.2933,0.3122 0.53328,0.69034 0.53328,0.84031 0,0.37594 -0.88986,1.14843 -1.32292,1.14843 -0.19537,0 -0.57293,-0.19704 -0.83905,-0.43788 -0.45025,-0.40745 -0.51749,-0.40745 -0.96772,0 -0.58758,0.53175 -1.38403,0.55007 -1.83125,0.0421 z m 2.1828,-1.19173 c 0.12676,0 0.48818,0.24209 0.80313,0.53798 0.47926,0.45023 0.62215,0.47836 0.87603,0.17245 0.23538,-0.28362 0.18499,-0.47264 -0.22489,-0.84357 -0.29051,-0.26292 -0.52823,-0.61973 -0.52823,-0.7929 0,-0.17317 0.23771,-0.52998 0.52823,-0.7929 0.40988,-0.37093 0.46027,-0.55995 0.22489,-0.84357 -0.25388,-0.30591 -0.39677,-0.27778 -0.87603,0.17245 -0.71609,0.67275 -0.99448,0.67444 -1.59602,0.01 -0.37093,-0.40987 -0.55996,-0.46026 -0.84357,-0.22487 -0.30592,0.25387 -0.27778,0.39677 0.17244,0.87601 0.67275,0.71611 0.67444,0.9945 0.01,1.59604 -0.40986,0.37092 -0.46024,0.55995 -0.22487,0.84357 0.25389,0.3059 0.39677,0.27777 0.87603,-0.17246 0.31496,-0.29587 0.67637,-0.53796 0.80313,-0.53796 z m -6.57583,-0.53391 c -0.34373,-1.71863 -0.22086,-2.35392 0.48983,-2.53229 1.07368,-0.26948 1.36547,0.0155 1.54198,1.50576 0.091,0.76835 0.12359,1.43887 0.0724,1.49004 -0.0512,0.0512 -0.50707,0.16022 -1.01311,0.24234 -0.86779,0.14082 -0.92982,0.1007 -1.09111,-0.70585 z m 1.41285,-0.32598 c -0.008,-0.72653 -0.33999,-1.52136 -0.63558,-1.52136 -0.20178,0 -0.2745,0.32882 -0.20477,0.92604 0.0657,0.56255 0.25252,0.92605 0.47604,0.92605 0.20236,0 0.36629,-0.14883 0.36431,-0.33073 z m 8.5953,-0.49608 c -0.2061,-0.93843 0.0118,-1.15736 1.41364,-1.42035 1.02332,-0.19198 1.25908,-0.0421 1.50573,0.95739 0.14993,0.60756 0.0644,0.7319 -0.68222,0.99219 -1.49721,0.52193 -2.03416,0.3949 -2.23715,-0.52923 z m 2.19489,-0.44439 c 0.058,-0.17397 -0.0733,-0.3163 -0.29186,-0.3163 -0.67183,0 -1.2343,0.30389 -1.2343,0.66688 0,0.43461 1.36928,0.12007 1.52616,-0.35058 z m 1.1509,-0.48572 c -0.27458,-0.60264 -0.24408,-0.77759 0.22212,-1.27382 0.29722,-0.31639 0.54041,-0.7164 0.54041,-0.88892 0,-0.43809 1.83415,-0.40369 2.00348,0.0376 0.32621,0.85009 -1.07932,2.82375 -2.01091,2.82375 -0.24024,0 -0.58003,-0.31436 -0.7551,-0.69858 z m 1.70527,-0.74499 c 0.41488,-0.63317 0.33696,-1.20226 -0.1646,-1.20226 -0.13693,0 -0.24898,0.16401 -0.24898,0.36448 0,0.20046 -0.17728,0.51161 -0.39396,0.69143 -0.39581,0.32849 -0.31421,0.79617 0.13889,0.79617 0.13358,0 0.43448,-0.29242 0.66865,-0.64982 z m -14.63493,-0.58374 c -0.63614,-0.25668 -0.32184,-1.21883 0.74739,-2.28806 1.01531,-1.01532 1.07311,-1.15607 0.99219,-2.41627 l -0.0859,-1.33815 0.97375,-0.081 c 0.96611,-0.0804 0.97514,-0.0718 1.1506,1.09835 0.0973,0.64865 0.0953,1.43645 -0.004,1.75066 -0.15364,0.48403 -0.30917,0.54359 -1.01832,0.38994 -0.81557,-0.1767 -0.82514,-0.16811 -0.37397,0.33557 0.60255,0.67269 0.59311,0.73735 -0.26458,1.81229 -0.68174,0.85441 -1.29551,1.06804 -2.11667,0.73669 z m 1.60944,-1.24965 c 0.22745,-0.34712 0.33927,-0.7054 0.2485,-0.79617 -0.18393,-0.18393 -1.39493,0.86551 -1.39493,1.20884 0,0.46044 0.75162,0.18988 1.14643,-0.41267 z m 1.49941,-3.35967 c 0,-0.74601 -0.10236,-1.04667 -0.33073,-0.97146 -0.6252,0.2059 -0.57316,2.05184 0.0579,2.05184 0.15008,0 0.27288,-0.48617 0.27288,-1.08038 z m 10.76496,2.73403 c -0.0628,-0.10914 -0.19304,-0.74299 -0.28941,-1.40854 -0.16399,-1.13261 -0.12952,-1.23093 0.5383,-1.5352 0.98469,-0.44866 1.45893,0.0767 1.62447,1.7995 l 0.12902,1.34268 h -0.94409 c -0.51925,0 -0.99548,-0.0893 -1.05829,-0.19844 z m 1.21545,-1.05833 c -0.20448,-1.27092 -0.32927,-1.50436 -0.63876,-1.19488 -0.36796,0.36797 -0.0311,1.92248 0.41665,1.92248 0.22199,0 0.29872,-0.25138 0.22211,-0.7276 z m -3.24257,-2.72558 c -0.90431,-0.7729 -0.91228,-0.79766 -0.48392,-1.50363 0.23954,-0.39479 0.55956,-0.75914 0.71115,-0.80967 0.15159,-0.0505 0.78413,0.38246 1.40566,0.96221 1.11929,1.04406 1.12528,1.05933 0.63032,1.60626 -0.6684,0.73856 -1.16618,0.68244 -2.26321,-0.25517 z m 1.8455,-0.20123 c 0,-0.11815 -0.35087,-0.47422 -0.77968,-0.79126 -0.96753,-0.71533 -1.46638,-0.22404 -0.51515,0.50734 0.66418,0.51067 1.29483,0.64895 1.29483,0.28392 z m -12.16985,-1.57111 c 10e-4,-0.96584 0.92734,-2.4474 1.52971,-2.4474 1.11935,0 1.40544,1.03455 0.65211,2.35814 -0.36746,0.64562 -0.64049,0.81386 -1.32292,0.81519 -0.76232,0.002 -0.85978,-0.0809 -0.8589,-0.72593 z m 1.63696,-0.59108 c 0.29086,-0.51117 0.35138,-0.84545 0.17304,-0.95567 -0.33959,-0.20988 -0.90125,0.35716 -1.13896,1.14987 -0.26731,0.8914 0.42773,0.75166 0.96592,-0.1942 z m 5.68018,0.58645 c -0.93101,-0.38131 -1.00291,-0.48295 -0.85714,-1.21176 0.0875,-0.43755 0.21185,-0.84829 0.27631,-0.91275 0.24101,-0.24101 1.97828,0.24569 2.56087,0.71744 0.53249,0.43119 0.56701,0.57231 0.28914,1.18218 -0.35683,0.78315 -0.79913,0.82698 -2.26918,0.22489 z m 1.61556,-0.6448 c -0.0584,-0.17529 -0.48507,-0.47329 -0.94808,-0.66222 -0.72967,-0.29773 -0.84186,-0.28939 -0.84186,0.0627 0,0.22339 0.26788,0.51383 0.59531,0.64544 0.8495,0.34146 1.31774,0.32348 1.19463,-0.0459 z m -5.17829,-0.40298 c -0.83024,-0.10233 -0.87067,-0.15745 -0.79374,-1.08213 l 0.0811,-0.97432 1.31757,0.0703 c 1.63497,0.0872 2.1148,0.49236 1.74257,1.47143 -0.27726,0.72922 -0.3961,0.75528 -2.34744,0.51477 z m 1.80084,-0.83751 c 0,-0.30578 -0.66679,-0.55748 -1.47685,-0.55748 -0.62343,0 -0.81955,0.26124 -0.46342,0.61736 0.26432,0.26432 1.94027,0.21259 1.94027,-0.0599 z m 5.29167,19.44445 c 0,-0.20405 -0.37495,-0.5017 -0.83322,-0.66146 -1.04254,-0.36343 -1.01886,-0.36539 -1.01886,0.0844 0,0.20615 0.32743,0.49441 0.72761,0.64057 1.00592,0.36739 1.12448,0.3607 1.12448,-0.0635 z m -12.78384,-1.5307 c -0.0845,-0.21107 -0.14715,-0.14838 -0.15985,0.15985 -0.0115,0.27891 0.051,0.43518 0.13896,0.34727 0.0879,-0.0879 0.0973,-0.31613 0.0209,-0.50712 z"
       style="fill:#1b1813;stroke-width:0.264583;fill-opacity:1"
       id="path1107" /></g></svg>
