<?xml version="1.0" encoding="UTF-8" standalone="no"?>
<!-- Created with Inkscape (http://www.inkscape.org/) -->

<svg
   width="29.04652mm"
   height="21.486864mm"
   viewBox="0 0 29.04652 21.486864"
   version="1.1"
   id="svg5"
   xml:space="preserve"
   inkscape:version="1.2.2 (732a01da63, 2022-12-09)"
   sodipodi:docname="Романтика-dark.svg"
   xmlns:inkscape="http://www.inkscape.org/namespaces/inkscape"
   xmlns:sodipodi="http://sodipodi.sourceforge.net/DTD/sodipodi-0.dtd"
   xmlns="http://www.w3.org/2000/svg"
   xmlns:svg="http://www.w3.org/2000/svg"><sodipodi:namedview
     id="namedview7"
     pagecolor="#ffffff"
     bordercolor="#000000"
     borderopacity="0.25"
     inkscape:showpageshadow="2"
     inkscape:pageopacity="0.0"
     inkscape:pagecheckerboard="0"
     inkscape:deskcolor="#d1d1d1"
     inkscape:document-units="mm"
     showgrid="false"
     inkscape:zoom="0.34709043"
     inkscape:cx="-155.57905"
     inkscape:cy="253.53623"
     inkscape:window-width="1366"
     inkscape:window-height="705"
     inkscape:window-x="-8"
     inkscape:window-y="-8"
     inkscape:window-maximized="1"
     inkscape:current-layer="layer1" /><defs
     id="defs2" /><g
     inkscape:label="Слой 1"
     inkscape:groupmode="layer"
     id="layer1"
     transform="translate(378.1958,1.8482955)"><path
       d="m -360.01047,18.487837 c -4.86295,-3.19247 -7.55224,-7.97486 -6.14826,-10.9335197 1.24966,-2.63347 4.90728,-3.00633 7.56376,-0.77105 l 0.79599,0.66979 0.58263,-0.54695 c 0.88868,-0.83426 2.84119,-1.62582 4.02633,-1.63231 1.53928,-0.008 2.7983,0.75348 3.52048,2.13044 1.24327,2.37048 0.2459,5.3261197 -2.85961,8.4743097 -1.55716,1.57856 -3.92899,3.33075 -5.07074,3.74601 -0.27189,0.0989 -1.18263,-0.33058 -2.41058,-1.13672 z m 4.04173,-0.69619 c 1.95712,-1.30786 4.47938,-3.94855 5.28813,-5.53643 0.48129,-0.94495 0.66146,-1.71861 0.66146,-2.8403697 0,-1.4513 -0.0599,-1.59656 -1.02141,-2.47773 -0.95499,-0.87519 -1.1131,-0.92845 -2.43147,-0.81912 -1.71296,0.14205 -3.47327,1.20758 -3.86863,2.34171 -0.14899,0.42737 -0.34853,0.77671 -0.44343,0.77632 -0.0949,-3.9e-4 -0.41068,-0.43931 -0.70172,-0.97538 -0.67446,-1.24228 -2.43271,-2.19891 -4.0415,-2.19891 -1.01809,0 -1.32118,0.14105 -2.20734,1.02721 -0.90054,0.90054 -1.02721,1.17988 -1.02721,2.26534 0,1.5859497 0.92761,3.5532897 2.54236,5.3920497 1.32949,1.51394 4.67734,4.0154 5.37402,4.0154 0.23378,0 1.07832,-0.43654 1.87674,-0.97009 z m -11.2721,-0.0535 c -3.35294,-1.83486 -7.18509,-5.27163 -8.92292,-8.0022797 -1.12398,-1.76612 -2.03409,-4.32634 -2.03204,-5.71633 0.005,-3.56453996 2.70284,-6.13166 6.14324,-5.84615 1.78481,0.14812 4.08619,1.20167004 5.25593,2.40611004 l 0.91437,0.94148996 0.89069,-0.93608996 c 1.13646,-1.1944 3.46526,-2.26291004 5.25583,-2.41151004 1.7386,-0.14428 3.36047,0.43589 4.49723,1.60873004 1.31812,1.35993996 2.18459,4.42750996 1.25061,4.42750996 -0.24829,0 -0.39687,-0.25083 -0.39687,-0.66996 0,-0.82509 -0.65841,-2.44598 -1.26687,-3.11881996 -0.77857,-0.86096 -2.35216,-1.50290004 -3.68353,-1.50268004 -2.39415,2.7e-4 -5.64204,2.04841004 -6.12757,3.86385 -0.11269,0.42139 -0.30683,0.76615 -0.43141,0.76615 -0.12458,0 -0.31872,-0.34476 -0.43141,-0.76615 -0.30176,-1.12833 -1.47818,-2.24383996 -3.27276,-3.10332996 -4.94798,-2.36977004 -8.99826,1.21118 -7.4119,6.55303996 0.89174,3.00281 4.5167,7.1946197 8.51423,9.8456197 2.18565,1.44944 2.79777,1.60505 3.73406,0.94924 0.55221,-0.38678 1.11674,-0.33091 1.11674,0.11052 0,0.10793 -0.51672,0.44728 -1.14826,0.75411 l -1.14825,0.55787 z"
       style="fill:#e4e0d4;stroke-width:0.264583;fill-opacity:1"
       id="path677" /></g></svg>
