<?xml version="1.0" encoding="UTF-8" standalone="no"?>
<!-- Created with Inkscape (http://www.inkscape.org/) -->

<svg
   width="31.112495mm"
   height="25.593754mm"
   viewBox="0 0 31.112495 25.593753"
   version="1.1"
   id="svg5"
   xml:space="preserve"
   inkscape:version="1.2.2 (732a01da63, 2022-12-09)"
   sodipodi:docname="Сай-фай-dark.svg"
   xmlns:inkscape="http://www.inkscape.org/namespaces/inkscape"
   xmlns:sodipodi="http://sodipodi.sourceforge.net/DTD/sodipodi-0.dtd"
   xmlns="http://www.w3.org/2000/svg"
   xmlns:svg="http://www.w3.org/2000/svg"><sodipodi:namedview
     id="namedview7"
     pagecolor="#ffffff"
     bordercolor="#000000"
     borderopacity="0.25"
     inkscape:showpageshadow="2"
     inkscape:pageopacity="0.0"
     inkscape:pagecheckerboard="0"
     inkscape:deskcolor="#d1d1d1"
     inkscape:document-units="mm"
     showgrid="false"
     inkscape:zoom="0.24542999"
     inkscape:cx="-171.12823"
     inkscape:cy="244.4689"
     inkscape:window-width="1366"
     inkscape:window-height="705"
     inkscape:window-x="-8"
     inkscape:window-y="-8"
     inkscape:window-maximized="1"
     inkscape:current-layer="layer1" /><defs
     id="defs2" /><g
     inkscape:label="Слой 1"
     inkscape:groupmode="layer"
     id="layer1"
     transform="translate(380.6398,-59.163481)"><path
       d="m -365.42812,84.520527 c -0.25758,-0.67123 -0.0212,-5.38787 0.26645,-5.31741 0.35507,0.087 0.4942,5.10307 0.15106,5.44622 -0.17829,0.17829 -0.31597,0.13581 -0.41751,-0.12881 z m -2.98679,-3.59626 c 0.0996,-2.27471 0.58144,-2.22991 0.68564,0.0637 0.065,1.43118 0.007,1.72219 -0.34282,1.72219 -0.35115,0 -0.40806,-0.29647 -0.34282,-1.78593 z m 5.82084,0 c 0.0996,-2.27471 0.58144,-2.22991 0.68563,0.0637 0.065,1.43118 0.007,1.72219 -0.34282,1.72219 -0.35115,0 -0.40806,-0.29647 -0.34281,-1.78593 z m -5.61031,-3.14589 c -5.99711,-0.54813 -10.50916,-1.95112 -11.88015,-3.69405 -0.32511,-0.4133 -0.55527,-1.09194 -0.55527,-1.63723 0,-1.6411 2.45477,-3.38251 5.89044,-4.17867 0.64269,-0.14893 0.76557,-0.0705 1.01646,0.64926 0.63178,1.81234 5.29367,3.15706 9.89414,2.85396 4.01887,-0.26478 6.71675,-1.32911 7.25056,-2.86039 0.24889,-0.71397 0.38122,-0.80106 1.02243,-0.67282 1.67004,0.33401 3.79106,1.32562 4.85501,2.2698 2.00716,1.78119 1.45702,3.49858 -1.61862,5.05292 -3.36551,1.70084 -10.54846,2.70406 -15.875,2.21722 z m 7.54062,-0.89047 c 3.24701,-0.35686 5.77127,-0.9744 7.72534,-1.88995 1.58505,-0.74265 2.72571,-1.78449 2.72571,-2.4896 0,-0.69083 -1.34327,-1.90551 -2.83322,-2.56199 -2.43829,-1.07434 -2.59362,-1.09211 -2.93802,-0.33624 -1.00799,2.2123 -7.62201,3.60954 -12.71397,2.68588 -2.63732,-0.4784 -4.93656,-1.5364 -5.55738,-2.55726 l -0.4499,-0.73981 -1.44594,0.50611 c -0.79527,0.27836 -1.9222,0.83804 -2.50428,1.24372 -0.8608,0.59994 -1.07352,0.91849 -1.1397,1.70664 -0.0733,0.87301 0.0292,1.04909 1.03441,1.77727 1.71798,1.2445 5.15986,2.20106 9.89487,2.74997 1.738,0.20148 5.9494,0.15283 8.20208,-0.0947 z m -11.99082,-10.37411 c 0.0955,-1.81922 0.25107,-2.46859 0.82684,-3.45107 1.8979,-3.23853 5.73735,-4.68061 9.26323,-3.47922 1.68711,0.57486 3.67714,2.42177 4.38673,4.07126 0.6355,1.47725 0.9,4.77005 0.39742,4.94754 -0.18594,0.0657 -0.34875,-0.57875 -0.44934,-1.77861 -0.0905,-1.079 -0.39696,-2.37575 -0.71856,-3.04008 -1.61854,-3.34345 -5.87782,-4.80005 -9.19796,-3.14555 -2.38124,1.18662 -3.70109,3.32169 -3.84357,6.2176 -0.0535,1.08682 -0.20364,1.70609 -0.43218,1.78227 -0.27815,0.0927 -0.32602,-0.34439 -0.23261,-2.12414 z m 12.12312,-1.38918 c 0,-0.60982 -1.56523,-2.23605 -2.71841,-2.82436 -0.72882,-0.37181 -0.96444,-0.6193 -0.77241,-0.81133 0.51311,-0.5131 2.67389,0.79343 3.52082,2.12891 0.85155,1.34275 0.95839,1.89445 0.36687,1.89445 -0.21828,0 -0.39687,-0.17445 -0.39687,-0.38767 z"
       style="fill:#fefefe;stroke-width:0.264583;fill-opacity:1"
       id="path735" /></g></svg>
