<?xml version="1.0" encoding="UTF-8" standalone="no"?>
<!-- Created with Inkscape (http://www.inkscape.org/) -->

<svg
   width="31.315073mm"
   height="23.12229mm"
   viewBox="0 0 31.315074 23.122287"
   version="1.1"
   id="svg5"
   xml:space="preserve"
   inkscape:version="1.2.2 (732a01da63, 2022-12-09)"
   sodipodi:docname="Триллер-light.svg"
   xmlns:inkscape="http://www.inkscape.org/namespaces/inkscape"
   xmlns:sodipodi="http://sodipodi.sourceforge.net/DTD/sodipodi-0.dtd"
   xmlns="http://www.w3.org/2000/svg"
   xmlns:svg="http://www.w3.org/2000/svg"><sodipodi:namedview
     id="namedview7"
     pagecolor="#ffffff"
     bordercolor="#000000"
     borderopacity="0.25"
     inkscape:showpageshadow="2"
     inkscape:pageopacity="0.0"
     inkscape:pagecheckerboard="0"
     inkscape:deskcolor="#d1d1d1"
     inkscape:document-units="mm"
     showgrid="false"
     inkscape:zoom="0.49085999"
     inkscape:cx="-291.32543"
     inkscape:cy="107.97376"
     inkscape:window-width="1366"
     inkscape:window-height="705"
     inkscape:window-x="-8"
     inkscape:window-y="-8"
     inkscape:window-maximized="1"
     inkscape:current-layer="layer1" /><defs
     id="defs2" /><g
     inkscape:label="Слой 1"
     inkscape:groupmode="layer"
     id="layer1"
     transform="translate(241.34167,-158.84571)"><path
       d="m -227.30476,181.84349 c -0.327,-0.32698 -0.1961,-1.12158 0.22344,-1.35637 0.35541,-0.19891 0.33503,-0.32065 -0.15869,-0.94832 -0.37671,-0.47891 -0.51449,-0.92714 -0.41136,-1.33809 0.14,-0.55774 0.0492,-0.63217 -0.93167,-0.76374 -0.59774,-0.0802 -1.20132,-0.2603 -1.3413,-0.40028 -0.25995,-0.25995 -0.21543,-0.31489 1.11233,-1.3728 0.52456,-0.41795 0.13122,-0.3381 -1.90058,0.38583 -5.30311,1.88949 -10.05752,3.3531 -10.42908,3.21052 -0.31828,-0.12213 -0.27377,-0.36689 0.25724,-1.41479 0.59466,-1.1735 0.61299,-1.32266 0.2481,-2.01907 -0.2167,-0.41358 -0.29401,-0.8474 -0.17181,-0.96403 0.12219,-0.11664 1.4128,-0.65139 2.868,-1.18834 7.69088,-2.83783 14.79519,-7.50822 15.35424,-10.09391 0.496,-2.29408 1.86142,-4.01195 3.63991,-4.57945 1.27058,-0.40543 3.19432,0.009 4.46445,0.96083 0.48568,0.36413 1.68673,1.07063 2.66899,1.57 0.98228,0.49936 1.78595,1.06819 1.78595,1.26406 0,0.23664 -0.66633,0.4701 -1.98601,0.69584 -3.06092,0.52359 -3.16545,0.68238 -4.09106,6.2146 -0.54595,3.2631 -2.83783,6.50994 -5.12897,7.26608 -0.46347,0.15296 -1.03642,0.59742 -1.27322,0.98768 -0.39407,0.64946 -0.3951,0.78389 -0.0121,1.58713 0.30084,0.63085 0.59562,0.87757 1.04852,0.87757 0.53121,0 0.6169,0.11412 0.54631,0.7276 l -0.0837,0.7276 -3.0568,0.0741 c -1.68124,0.0408 -3.13975,-0.009 -3.24115,-0.11024 z m 1.78789,-1.74977 c -0.80441,-1.40691 -0.8044,-1.6549 1.3e-4,-2.45942 0.97082,-0.97084 1.57212,-0.86923 1.39286,0.23537 -0.11178,0.68881 8.1e-4,1.0551 0.50855,1.65365 0.4704,0.55459 0.57449,0.6078 0.37355,0.19092 -0.15322,-0.31786 -0.27857,-0.77573 -0.27857,-1.01749 0,-0.77772 1.05371,-1.94967 2.21473,-2.46325 2.42019,-1.07056 3.926,-3.37482 4.56188,-6.98076 0.91202,-5.17193 1.2684,-5.73639 3.97672,-6.29863 l 1.53675,-0.31903 -1.28139,-0.65122 c -0.70476,-0.35817 -1.75767,-0.99624 -2.33982,-1.41793 -2.90255,-2.1026 -5.91765,-0.93994 -6.93134,2.67284 -0.3908,1.39278 -0.7188,1.91959 -1.96325,3.15312 -2.68906,2.66547 -8.10617,5.75863 -13.69553,7.82012 l -2.67647,0.98714 0.2831,0.75003 c 0.22352,0.59218 0.18911,0.94713 -0.16352,1.6866 -0.24564,0.51512 -0.40297,0.93658 -0.34962,0.93658 0.41519,0 11.39853,-3.90071 13.3695,-4.74814 1.37217,-0.58998 2.65208,-1.07269 2.84426,-1.07269 0.82988,0 0.18629,0.6364 -2.17524,2.15094 -1.38857,0.89054 -2.46618,1.67766 -2.39468,1.74916 0.0715,0.0715 0.52298,0.21335 1.00331,0.31523 0.76626,0.16256 0.86616,0.28005 0.81488,0.95842 -0.0359,0.47492 0.20346,1.15108 0.62053,1.75291 0.37344,0.53887 0.60107,1.10581 0.50585,1.25989 -0.0998,0.16145 0.0512,0.28012 0.35632,0.28012 0.51172,0 0.50792,-0.0376 -0.11349,-1.12448 z m 3.31943,1.02457 c 0,-0.0549 -0.1786,-0.2481 -0.39687,-0.42927 -0.32504,-0.26975 -0.39689,-0.25167 -0.39689,0.0999 0,0.2361 0.17861,0.42927 0.39689,0.42927 0.21827,0 0.39687,-0.045 0.39687,-0.0999 z m -1.85208,-0.85056 c 0,-0.0862 -0.24021,-0.46207 -0.53381,-0.83532 -0.3284,-0.41749 -0.47624,-0.89169 -0.38423,-1.23236 0.14063,-0.52072 0.13108,-0.52405 -0.16017,-0.0561 -0.24441,0.39269 -0.22008,0.68558 0.11537,1.38906 0.36471,0.76478 0.96283,1.22122 0.96283,0.73475 z"
       style="fill:#1b1813;stroke-width:0.264583;fill-opacity:1"
       id="path1084" /></g></svg>
