<?xml version="1.0" encoding="UTF-8" standalone="no"?>
<!-- Created with Inkscape (http://www.inkscape.org/) -->

<svg
   width="25.755346mm"
   height="22.22501mm"
   viewBox="0 0 25.755347 22.225009"
   version="1.1"
   id="svg5"
   xml:space="preserve"
   inkscape:version="1.2.2 (732a01da63, 2022-12-09)"
   sodipodi:docname="Фэнтези-dark.svg"
   xmlns:inkscape="http://www.inkscape.org/namespaces/inkscape"
   xmlns:sodipodi="http://sodipodi.sourceforge.net/DTD/sodipodi-0.dtd"
   xmlns="http://www.w3.org/2000/svg"
   xmlns:svg="http://www.w3.org/2000/svg"><sodipodi:namedview
     id="namedview7"
     pagecolor="#ffffff"
     bordercolor="#000000"
     borderopacity="0.25"
     inkscape:showpageshadow="2"
     inkscape:pageopacity="0.0"
     inkscape:pagecheckerboard="0"
     inkscape:deskcolor="#d1d1d1"
     inkscape:document-units="mm"
     showgrid="false"
     inkscape:zoom="0.49085999"
     inkscape:cx="283.17647"
     inkscape:cy="122.23445"
     inkscape:window-width="1366"
     inkscape:window-height="705"
     inkscape:window-x="-8"
     inkscape:window-y="-8"
     inkscape:window-maximized="1"
     inkscape:current-layer="layer1" /><defs
     id="defs2" /><g
     inkscape:label="Слой 1"
     inkscape:groupmode="layer"
     id="layer1"
     transform="translate(391.60579,-111.60148)"><path
       d="m -390.54474,133.65011 c -0.097,-0.097 -0.17639,-0.82254 -0.17639,-1.61227 0,-1.21337 0.082,-1.45733 0.52917,-1.57427 0.5017,-0.13119 0.52905,-0.35989 0.52687,-4.407 -10e-4,-2.34774 -0.0766,-4.88731 -0.16747,-5.6435 -0.14845,-1.23569 -0.23527,-1.38301 -0.8576,-1.45521 l -0.69243,-0.0803 -0.16348,-3.43959 c -0.0899,-1.89177 -0.0768,-3.53608 0.0292,-3.65402 0.106,-0.11795 0.77488,-0.17748 1.4864,-0.13229 l 1.29369,0.0821 0.0782,1.78593 c 0.043,0.98227 0.18642,1.78594 0.31864,1.78594 0.13222,0 0.27561,-0.80367 0.31864,-1.78594 l 0.0782,-1.78593 h 1.45521 1.4552 l 0.0782,1.78593 c 0.043,0.98227 0.18642,1.78594 0.31864,1.78594 0.13222,0 0.27561,-0.80367 0.31864,-1.78594 l 0.0782,-1.78593 1.29369,-0.0821 c 0.71152,-0.0452 1.38452,0.0143 1.49555,0.13229 0.11102,0.11794 0.12418,1.76225 0.0292,3.65402 l -0.17263,3.43959 -0.72761,0.0837 -0.7276,0.0837 0.0376,2.29753 c 0.0268,1.64024 0.0836,1.99476 0.19843,1.23919 l 0.16089,-1.05833 3.68318,-0.0739 c 2.02575,-0.0406 3.7871,0.03 3.91411,0.15703 0.127,0.127 0.32971,0.9937 0.45046,1.92599 0.2054,1.58601 0.22169,1.49506 0.25308,-1.4138 l 0.0335,-3.10885 h -0.75779 c -0.70093,0 -0.77041,-0.0921 -0.92604,-1.22755 -0.0925,-0.67516 -0.16825,-2.34204 -0.16825,-3.70417 v -2.47662 h 1.44312 1.44311 l 0.0782,1.76486 c 0.0495,1.11738 0.19957,1.80494 0.40896,1.87413 0.24375,0.0805 0.33073,-0.38365 0.33073,-1.76485 v -1.87414 h 1.45521 1.45521 v 1.85209 c 0,1.01864 0.10348,1.85208 0.22996,1.85208 0.2561,0 0.5564,-1.52288 0.56088,-2.84427 l 0.003,-0.8599 h 1.45521 1.45521 v 1.67988 c 0,0.92393 -0.077,2.5908 -0.17112,3.70416 -0.16988,2.00971 -0.17655,2.0243 -0.92604,2.0243 h -0.75493 v 3.26664 c 0,1.79666 -0.0774,4.3565 -0.17191,5.68855 -0.16457,2.3185 -0.14884,2.42189 0.36857,2.42189 0.79689,0 1.11177,1.28879 0.69491,2.84427 l -0.15953,0.59532 h -11.69901 c -6.43445,0 -11.77838,-0.0794 -11.87539,-0.17639 z m 23.10695,-1.51255 c 0,-0.67266 -0.13154,-0.92958 -0.52917,-1.03356 -0.50502,-0.13207 -0.52906,-0.3599 -0.52687,-4.9918 10e-4,-2.66938 0.0782,-5.48494 0.17085,-6.2568 0.15349,-1.27812 0.23595,-1.41687 0.92374,-1.55443 l 0.7552,-0.15104 v -2.59112 c 0,-1.42512 0.0723,-2.77945 0.1606,-3.00963 0.12791,-0.33335 -0.0312,-0.41852 -0.78167,-0.41852 h -0.94226 l -0.0782,1.78594 -0.0782,1.78594 -0.85989,0.0829 -0.8599,0.0829 v -1.86885 -1.86885 h -0.92604 -0.92604 v 1.85208 1.85209 h -0.92604 -0.92604 v -1.85209 -1.85208 h -0.9629 -0.9629 l 0.16685,1.38906 c 0.0918,0.76399 0.16788,2.11832 0.16915,3.00964 0.002,1.5883 0.0181,1.62373 0.79605,1.77932 l 0.79375,0.15875 v 5.95144 c 0,4.90481 -0.0632,5.92719 -0.3593,5.81356 -0.24879,-0.0955 -0.50499,-1.35427 -0.83299,-4.09274 l -0.4737,-3.95486 h -3.26301 c -3.17095,0 -3.26648,0.0168 -3.38628,0.59531 -0.0678,0.32742 -0.30831,2.13333 -0.53447,4.01312 -0.22617,1.87979 -0.47062,3.47721 -0.54323,3.54982 -0.0726,0.0726 -0.13202,-0.0139 -0.13202,-0.19227 0,-0.17836 -0.11907,-0.25071 -0.26459,-0.16077 -0.17334,0.10713 -0.26458,-1.85154 -0.26458,-5.67954 v -5.84307 l 0.76619,-0.15324 c 0.92638,-0.18527 1.08589,-0.76809 1.08589,-3.96764 v -2.21589 h -0.75956 c -0.74724,0 -0.76255,0.0303 -0.94359,1.86754 l -0.18402,1.86754 -0.84235,-0.0816 -0.84235,-0.0816 -0.0782,-1.78594 c -0.0779,-1.77759 -0.0818,-1.78594 -0.8478,-1.78594 -0.76598,0 -0.76994,0.008 -0.84781,1.78594 l -0.0782,1.78594 -0.84235,0.0816 -0.84235,0.0816 -0.18402,-1.86754 c -0.18104,-1.83724 -0.19635,-1.86754 -0.94359,-1.86754 h -0.75956 l 0.003,2.05052 c 0.005,3.26402 0.18574,3.95357 1.08565,4.13355 l 0.76352,0.1527 0.056,4.76912 c 0.0308,2.62301 0.0606,5.39419 0.0661,6.15817 0.009,1.19188 -0.0743,1.42614 -0.58514,1.65024 -0.44236,0.19408 -0.59531,0.48298 -0.59531,1.12448 v 0.86331 h 11.37708 11.37709 z m -13.75834,-2.81108 c 0,-2.7606 0.038,-2.97041 0.64944,-3.5818 0.96477,-0.96478 2.57492,-0.90536 3.61362,0.13334 0.77816,0.77815 0.78233,0.79885 0.70726,3.50573 l -0.0755,2.72295 -2.44739,0.0761 -2.4474,0.0761 z m 4.23334,-0.11129 c 0,-2.89025 -0.24326,-3.32619 -1.85598,-3.32619 -1.51327,0 -1.84819,0.63397 -1.84819,3.49845 v 2.32238 h 1.85208 1.85209 z m -6.16927,-3.11122 c -0.0845,-0.21107 -0.14715,-0.14837 -0.15985,0.15985 -0.0115,0.27892 0.0511,0.43519 0.13897,0.34727 0.0879,-0.0879 0.0973,-0.31613 0.0209,-0.50712 z"
       style="fill:#e4e0d4;stroke-width:0.264583;fill-opacity:1"
       id="path926" /></g></svg>
