<?xml version="1.0" encoding="UTF-8" standalone="no"?>
<!-- Created with Inkscape (http://www.inkscape.org/) -->

<svg
   width="23.37896mm"
   height="24.442131mm"
   viewBox="0 0 23.378959 24.44213"
   version="1.1"
   id="svg5"
   xml:space="preserve"
   inkscape:version="1.2.2 (732a01da63, 2022-12-09)"
   sodipodi:docname="Экшен-light.svg"
   xmlns:inkscape="http://www.inkscape.org/namespaces/inkscape"
   xmlns:sodipodi="http://sodipodi.sourceforge.net/DTD/sodipodi-0.dtd"
   xmlns="http://www.w3.org/2000/svg"
   xmlns:svg="http://www.w3.org/2000/svg"><sodipodi:namedview
     id="namedview7"
     pagecolor="#ffffff"
     bordercolor="#000000"
     borderopacity="0.25"
     inkscape:showpageshadow="2"
     inkscape:pageopacity="0.0"
     inkscape:pagecheckerboard="0"
     inkscape:deskcolor="#d1d1d1"
     inkscape:document-units="mm"
     showgrid="false"
     inkscape:zoom="0.24542999"
     inkscape:cx="399.29921"
     inkscape:cy="248.54338"
     inkscape:window-width="1366"
     inkscape:window-height="705"
     inkscape:window-x="-8"
     inkscape:window-y="-8"
     inkscape:window-maximized="1"
     inkscape:current-layer="layer1" /><defs
     id="defs2" /><g
     inkscape:label="Слой 1"
     inkscape:groupmode="layer"
     id="layer1"
     transform="translate(376.58135,-58.583297)"><path
       d="m -371.20926,82.430109 c -0.59464,-0.54364 -0.69015,-0.96276 -1.10031,-4.82864 -0.24703,-2.32834 -0.56502,-4.37552 -0.70665,-4.54929 -0.14162,-0.17378 -0.69491,-0.35238 -1.22954,-0.39688 -0.90132,-0.075 -1.02628,-0.19478 -1.71741,-1.64578 -0.4427,-0.92942 -0.68683,-1.79812 -0.6012,-2.13928 0.11221,-0.44707 1.38382,-1.15341 5.73603,-3.18616 5.28562,-2.46871 5.61144,-2.58495 5.94946,-2.12267 0.19669,0.26898 0.40362,0.621 0.45984,0.78227 0.0637,0.18282 0.77382,-0.0341 1.88622,-0.57635 1.43195,-0.69796 1.74724,-0.95903 1.59772,-1.32292 -0.43183,-1.05095 -0.23925,-1.24404 2.63841,-2.64549 2.60382,-1.26808 2.9622,-1.37719 3.5283,-1.07422 0.79961,0.42794 1.26035,1.3378 1.49551,2.95328 0.13456,0.92445 0.0805,1.43306 -0.19688,1.85208 -0.21031,0.31771 -1.70958,1.22942 -3.33171,2.02601 -2.28174,1.12051 -2.90793,1.53973 -2.76647,1.85208 0.10057,0.22206 0.23464,0.91632 0.29794,1.5428 0.0862,0.85344 -0.008,1.27543 -0.37573,1.68284 -0.82485,0.91382 -3.93676,2.33747 -5.10939,2.33747 -0.92466,0 -1.08225,0.089 -1.23506,0.69792 -0.13646,0.5437 -0.0399,0.79994 0.43681,1.15955 0.56373,0.42522 0.58482,0.52717 0.26752,1.2932 -0.30145,0.72776 -0.28619,0.89597 0.12221,1.34725 0.40475,0.44724 0.4221,0.62325 0.1308,1.32652 -0.30398,0.73387 -0.27748,0.87301 0.2791,1.46546 0.37603,0.40027 0.51867,0.74625 0.36712,0.89048 -0.25602,0.24363 -5.37567,1.87379 -5.88482,1.87379 -0.15766,0 -0.57967,-0.26789 -0.93782,-0.59532 z m 3.7075,-0.88055 c 1.87321,-0.57137 2.18529,-0.74362 1.922,-1.06087 -0.18794,-0.22646 -0.25739,-0.80325 -0.17273,-1.4345 0.0795,-0.59246 0.0232,-1.12895 -0.12831,-1.22257 -0.14858,-0.0918 -0.21379,-0.6649 -0.14504,-1.27479 0.0926,-0.82138 -0.002,-1.26489 -0.36635,-1.71463 -0.65204,-0.80522 -0.61956,-1.23751 0.15086,-2.00793 0.4619,-0.4619 0.90776,-0.63212 1.58868,-0.60652 0.52062,0.0196 1.02543,-0.0433 1.12179,-0.13962 0.0964,-0.0964 -0.14229,-0.1752 -0.53035,-0.1752 -0.89117,0 -1.76389,-0.85501 -1.76389,-1.7281 0,-0.74157 0.61897,-1.12759 1.12913,-0.7042 0.24998,0.20747 0.32833,0.0735 0.32736,-0.55969 -0.001,-0.68861 0.15872,-0.91128 0.92476,-1.28877 1.1946,-0.58867 1.92232,-0.59387 2.61853,-0.0187 0.60064,0.49619 0.76559,1.3809 0.45631,2.4474 -0.18408,0.63477 -0.17526,0.64074 0.21875,0.14787 0.51717,-0.64693 0.51679,-1.15197 -0.002,-2.39311 -0.2268,-0.54283 -0.33672,-1.06338 -0.24427,-1.1568 0.0925,-0.0934 1.55795,-0.88421 3.25665,-1.75734 l 3.08859,-1.58749 -0.0554,-1.19063 c -0.14305,-3.07447 -0.56384,-3.26495 -3.83545,-1.73611 l -2.49024,1.16369 0.11024,0.94432 c 0.10952,0.93809 0.0978,0.95028 -1.77492,1.84776 -1.98324,0.95044 -2.80671,0.98087 -3.08188,0.11389 -0.0907,-0.28585 -0.30376,-0.46647 -0.47341,-0.40137 -2.1729,0.83382 -10.22707,4.84949 -10.22707,5.09903 0,0.18329 0.23389,0.87891 0.51976,1.54582 0.44815,1.04549 0.62638,1.21256 1.29361,1.21256 1.63819,0 1.85953,0.49132 2.41421,5.359 0.27783,2.43812 0.57841,4.55148 0.66794,4.69635 0.25595,0.41413 1.074,0.31576 3.48198,-0.41872 z m 3.79333,-10.24834 c 0,-0.0454 -0.36728,-0.35407 -0.81617,-0.68595 -0.75541,-0.5585 -0.79503,-0.56392 -0.5322,-0.0728 0.26167,0.48892 0.65298,0.76811 1.14993,0.82042 0.10914,0.0115 0.19844,-0.0162 0.19844,-0.0616 z m 2.8146,-1.95295 c 0.24324,-0.96915 -0.41897,-1.51532 -1.57444,-1.29855 -1.35044,0.25334 -1.63113,0.72075 -0.95161,1.58462 0.30571,0.38866 0.49661,0.86102 0.4242,1.04969 -0.089,0.23186 0.20369,0.17715 0.90289,-0.16879 0.65205,-0.3226 1.09532,-0.75406 1.19896,-1.16697 z"
       style="fill:#1b1813;stroke-width:0.264583;fill-opacity:1"
       id="path814" /></g></svg>
